<?xml version="1.0" encoding="UTF-8"?>
<svg width="30px" height="30px" viewBox="0 0 30 30" version="1.1" xmlns="http://www.w3.org/2000/svg" xmlns:xlink="http://www.w3.org/1999/xlink">
    <title>dc</title>
    <g id="页面-1" stroke="none" stroke-width="1" fill="none" fill-rule="evenodd">
        <g id="List-&amp;-pop-up-&amp;-button" transform="translate(-2350.000000, -1089.000000)" fill="#6B75F7" fill-rule="nonzero">
            <g id="fot" transform="translate(2087.000000, 1073.998192)">
                <path d="M278,15.001808 C286.282988,15.001808 293,21.7188197 293,30.001808 C293,38.2847963 286.282988,45.001808 278,45.001808 C269.717012,45.001808 263,38.2847963 263,30.001808 C263,21.7188197 269.717012,15.001808 278,15.001808 Z M281.217221,21.8600374 C281.189715,21.8549693 281.162029,21.8679536 281.148542,21.8922473 C280.952892,22.2441808 280.775284,22.6056744 280.616398,22.9753494 C279.025197,22.7359632 277.406653,22.7359632 275.815452,22.9753494 C275.655514,22.6047357 275.47506,22.243152 275.274915,21.8922473 C275.260866,21.8685348 275.233608,21.8557573 275.2062,21.8600374 C273.729902,22.1122986 272.292984,22.5538096 270.931614,23.173458 C270.91996,23.1783544 270.910126,23.1867147 270.903471,23.1973853 C268.180997,27.2267375 267.435208,31.1570176 267.801067,35.038629 C267.803146,35.05785 267.813005,35.0754123 267.828388,35.0872978 C269.41366,36.2505895 271.186805,37.138539 273.072157,37.713254 C273.099349,37.7213381 273.128744,37.7117918 273.145836,37.6893267 C273.550768,37.1432734 273.909569,36.5650512 274.218589,35.96054 C274.227178,35.943761 274.228113,35.9241418 274.221158,35.9066353 C274.214203,35.8891288 274.200022,35.8754079 274.182196,35.8689365 C273.616394,35.6543809 273.068631,35.3957392 272.544048,35.0954388 C272.524696,35.084164 272.512287,35.0640714 272.510961,35.0418625 C272.509635,35.0196536 272.519566,34.9982507 272.537441,34.9847925 C272.647826,34.9030751 272.756295,34.8188468 272.862763,34.7321748 C272.88181,34.7166273 272.908101,34.7131167 272.930621,34.7231136 C276.367383,36.2775774 280.088146,36.2775774 283.484229,34.7231136 C283.506818,34.7124719 283.533571,34.7156829 283.552944,34.7313607 C283.659533,34.8184909 283.768281,34.902994 283.879088,34.9847925 C283.897058,34.9981126 283.907146,35.0194351 283.905985,35.0416456 C283.904823,35.0638561 283.892566,35.084031 283.873302,35.0954388 C283.349912,35.3982654 282.801652,35.656745 282.234368,35.8681224 C282.216551,35.874842 282.202468,35.8887692 282.195649,35.9064129 C282.188831,35.9240565 282.189924,35.9437439 282.198653,35.96054 C282.512847,36.5616894 282.87112,37.1391831 283.270586,37.688371 C283.287213,37.7114744 283.316884,37.7214522 283.344264,37.7131479 C285.232995,37.1403813 287.009239,36.2523492 288.596497,35.0872978 C288.612132,35.0759891 288.622089,35.0585494 288.623819,35.0394431 C289.06182,30.5518963 287.89053,26.653826 285.519022,23.1981994 C285.513185,23.1869904 285.503513,23.178207 285.491736,23.1734226 C284.130188,22.5543071 282.693364,22.1128293 281.217221,21.8600374 Z M274.731841,28.4814723 C275.791309,28.4814723 276.635634,29.4307794 276.619098,30.5782659 C276.619098,31.7340704 275.783023,32.6751303 274.731841,32.6751303 C273.697123,32.6751303 272.844549,31.7340704 272.844549,30.5783367 C272.844549,29.4226031 273.680588,28.4814723 274.731841,28.4814723 Z M281.709723,28.4814723 C282.769262,28.4814723 283.613551,29.4307794 283.597015,30.5782659 C283.597015,31.7340704 282.769262,32.6751303 281.709723,32.6751303 C280.675041,32.6751303 279.822466,31.7340704 279.822466,30.5783367 C279.822466,29.4226031 280.658505,28.4814723 281.709723,28.4814723 Z" id="dc"></path>
            </g>
        </g>
    </g>
</svg>