<?xml version="1.0" encoding="UTF-8"?>
<svg width="30px" height="30px" viewBox="0 0 30 30" version="1.1" xmlns="http://www.w3.org/2000/svg" xmlns:xlink="http://www.w3.org/1999/xlink">
    <title>doc</title>
    <g id="页面-1" stroke="none" stroke-width="1" fill="none" fill-rule="evenodd">
        <g id="List-&amp;-pop-up-&amp;-button" transform="translate(-2110.000000, -1089.000000)" fill="#F0B100" fill-rule="nonzero">
            <g id="fot" transform="translate(2087.000000, 1073.998192)">
                <path d="M38,15.001808 C46.3076923,15.001808 53,21.6941157 53,30.001808 C53,38.3095003 46.3076923,45.001808 38,45.001808 C29.6923077,45.001808 23,38.3095003 23,30.001808 C23,21.6941157 29.6923077,15.001808 38,15.001808 Z M38.8923061,21.001808 L33.5384693,21.001808 C32.1365107,21.001808 31,22.138078 31,23.5397358 L31,36.0908855 C31,37.4925433 32.1365107,38.6288133 33.5384693,38.6288133 L43.4615307,38.6288133 C44.8634893,38.6288133 46,37.4925433 46,36.0908855 L46,27.9234056 L40.7846123,27.9234056 C39.7499733,27.9234056 38.9092714,27.0932318 38.8925668,26.0627839 L38.8923061,21.001808 Z M41.760996,33.8990579 C42.0923596,33.898058 42.3617981,34.165832 42.3628036,34.4971155 C42.3637834,34.8236663 42.1035695,35.0900968 41.7787634,35.0985994 L41.7646056,35.0988 L34.1030749,35.1218615 L34.0931484,35.1218013 C33.7663369,35.1175099 33.5022527,34.8517812 33.5012473,34.5238066 C33.5002874,34.1972558 33.7604813,33.9308454 34.0852874,33.9223227 L34.0994452,33.9221222 Z M38.2282754,29.6538 C38.559639,29.6538 38.8282754,29.9223962 38.8282754,30.2536796 C38.8282754,30.5802505 38.5672594,30.8458588 38.2424332,30.8533788 L34.0823797,30.8534791 C33.7556083,30.8481649 33.4923061,30.5816743 33.4923061,30.2536796 C33.4923061,29.9271088 33.7533222,29.6615005 34.0781484,29.6539804 L34.0923061,29.6538 Z M39.6307754,21.1503641 L39.6307754,26.0315005 C39.6307754,26.6622425 40.1370655,27.1747692 40.7655414,27.1849564 L45.8739639,27.1850968 C45.8376023,27.1230709 45.7941411,27.0654905 45.7444586,27.0135192 C45.7240657,26.9859643 45.7013634,26.960196 45.6765976,26.9364938 L39.6776604,21.1908922 L39.6661497,21.1801636 L39.6307754,21.1503641 Z" id="doc"></path>
            </g>
        </g>
    </g>
</svg>