<?xml version="1.0" encoding="UTF-8"?>
<svg width="30px" height="30px" viewBox="0 0 30 30" version="1.1" xmlns="http://www.w3.org/2000/svg" xmlns:xlink="http://www.w3.org/1999/xlink">
    <title>mail</title>
    <g id="é¡µé¢-1" stroke="none" stroke-width="1" fill="none" fill-rule="evenodd">
        <g id="List-&amp;-pop-up-&amp;-button" transform="translate(-2170.000000, -1089.000000)" fill="#FA3C58" fill-rule="nonzero">
            <g id="fot" transform="translate(2087.000000, 1073.998192)">
                <path d="M98,15.001808 C89.7159158,15.001808 83,21.7177238 83,30.001808 C83,38.2858922 89.7159158,45.001808 98,45.001808 C106.284084,45.001808 113,38.2858922 113,30.001808 C113,21.7177238 106.284084,15.001808 98,15.001808 Z M105.744117,34.5193708 C105.744117,35.3474454 105.047346,36.0250582 104.19544,36.0250582 L91.8045263,36.0250582 C90.9526541,36.0250582 90.2558498,35.3474788 90.2558498,34.5193708 L90.262959,27.0804834 L97.8144258,31.0851139 C97.9305443,31.1464311 98.0694557,31.1464311 98.1855742,31.0851139 L105.744117,27.0767119 L105.744117,34.5193708 L105.744117,34.5193708 Z M98.0037382,29.6711121 L90.2638268,25.470494 C90.2713366,24.6486274 90.9576606,23.9785578 91.8045597,23.9785578 L104.195507,23.9785578 C105.041138,23.9785578 105.734171,24.6461242 105.744184,25.4663219 L98.0038049,29.6711121 L98.0037382,29.6711121 Z" id="mail"></path>
            </g>
        </g>
    </g>
</svg>