<?xml version="1.0" encoding="UTF-8"?>
<svg width="30px" height="30px" viewBox="0 0 30 30" version="1.1" xmlns="http://www.w3.org/2000/svg" xmlns:xlink="http://www.w3.org/1999/xlink">
    <title>medium</title>
    <g id="页面-1" stroke="none" stroke-width="1" fill="none" fill-rule="evenodd">
        <g id="List-&amp;-pop-up-&amp;-button" transform="translate(-2230.000000, -1089.000000)" fill="#000000" fill-rule="nonzero">
            <g id="fot" transform="translate(2087.000000, 1073.998192)">
                <path d="M158,15.001808 C149.716518,15.001808 143,21.7183258 143,30.001808 C143,38.2852901 149.716518,45.001808 158,45.001808 C166.283482,45.001808 173,38.2852901 173,30.001808 C173,21.7183258 166.283482,15.001808 158,15.001808 Z M166.571429,23.4962276 L165.205357,24.8053794 C165.084821,24.8957812 165.027902,25.0431026 165.051339,25.1870758 L165.051339,34.8198883 C165.027902,34.9672098 165.084821,35.1145312 165.205357,35.2015848 L166.544643,36.5107366 L166.544643,36.8020312 L159.821429,36.8020312 L159.821429,36.5241294 L161.204241,35.1814955 C161.341518,35.0442187 161.341518,35.0040401 161.341518,34.7997991 L161.341518,27.0051562 L157.491071,36.7685491 L156.972098,36.7685491 L152.492188,27.0051562 L152.492188,33.5509151 C152.452009,33.8254687 152.549107,34.1033705 152.743304,34.3009151 L154.544643,36.4806026 L154.544643,36.7718973 L149.428571,36.7718973 L149.428571,36.4806026 L151.229911,34.3009151 C151.424107,34.1033705 151.507812,33.8221205 151.464286,33.5509151 L151.464286,25.9839508 C151.487723,25.7730133 151.407366,25.5687723 151.246652,25.4247991 L149.646205,23.4962276 L149.646205,23.204933 L154.618304,23.204933 L158.455357,31.6256919 L161.833705,23.2116294 L166.571429,23.2116294 L166.571429,23.4962276 Z" id="medium"></path>
            </g>
        </g>
    </g>
</svg>