<?xml version="1.0" encoding="UTF-8"?>
<svg width="30px" height="30px" viewBox="0 0 30 30" version="1.1" xmlns="http://www.w3.org/2000/svg" xmlns:xlink="http://www.w3.org/1999/xlink">
    <title>twt</title>
    <g id="页面-1" stroke="none" stroke-width="1" fill="none" fill-rule="evenodd">
        <g id="List-&amp;-pop-up-&amp;-button" transform="translate(-2290.000000, -1089.000000)" fill="#007AF0" fill-rule="nonzero">
            <g id="fot" transform="translate(2087.000000, 1073.998192)">
                <path d="M218,15.001808 C209.692308,15.001808 203,21.6941157 203,30.001808 C203,38.3095003 209.692308,45.001808 218,45.001808 C226.307692,45.001808 233,38.3095003 233,30.001808 C233,21.6941157 226.307692,15.001808 218,15.001808 Z M227.325606,25.7080411 C227.190342,25.8433053 227.190342,25.9785695 227.055077,25.9785695 C226.784549,26.2490979 226.514021,26.3843621 226.243492,26.5196262 C226.108228,26.5196262 226.108228,26.6548904 226.108228,26.7901546 C226.243492,28.2780607 225.972964,29.7659667 225.431907,31.2538728 C224.485058,33.8238923 222.456095,35.8528551 220.02134,37.0702328 C217.992377,38.2876105 215.557622,38.693403 213.393395,38.1523463 C212.311281,38.0170821 211.364432,37.6112896 210.552847,37.0702328 L210.417582,36.9349686 C210.417582,36.7997044 210.552847,36.6644403 210.688111,36.6644403 C211.364432,36.6644403 212.040753,36.5291761 212.717074,36.2586477 C213.393395,35.9881193 214.069715,35.5823268 214.610772,35.1765342 L214.746036,35.04127 C214.746036,34.9060058 214.746036,34.7707416 214.610772,34.7707416 C214.069715,34.6354774 213.663923,34.3649491 213.25813,34.0944207 C212.717074,33.8238923 212.311281,33.2828356 212.040753,32.7417788 L212.040753,32.6065147 C212.040753,32.4712505 212.176017,32.3359863 212.311281,32.3359863 L212.717074,32.3359863 C212.852338,32.3359863 212.852338,32.3359863 212.852338,32.2007221 C212.987602,32.0654579 212.852338,31.9301937 212.717074,31.7949295 C212.176017,31.5244012 211.770224,31.1186086 211.364432,30.712816 C210.823375,30.1717593 210.552847,29.4954384 210.552847,28.8191174 L210.552847,28.6838532 C210.552847,28.548589 210.823375,28.548589 210.823375,28.548589 C210.958639,28.548589 211.093903,28.6838532 211.229168,28.6838532 L211.499696,28.6838532 C211.63496,28.6838532 211.63496,28.6838532 211.770224,28.548589 C211.905488,28.4133248 211.905488,28.2780607 211.770224,28.1427965 C211.229168,27.6017398 210.823375,26.9254188 210.688111,26.1138337 C210.552847,25.4375127 210.688111,24.6259276 210.958639,23.9496067 L210.958639,23.8143425 C210.688111,23.9496067 210.823375,23.9496067 210.958639,24.0848709 C211.905488,25.0317202 212.852338,25.8433053 214.069715,26.5196262 C215.422357,27.1959472 216.910263,27.6017397 218.398169,27.6017398 C218.533434,27.6017398 218.668698,27.4664755 218.668698,27.3312114 C218.668698,26.5196263 218.939226,23.8143425 221.373982,23.1380216 C222.591359,22.732229 224.079265,23.0027574 225.026115,24.0848709 C225.026115,24.0848709 225.161379,24.2201351 225.296643,24.2201351 C225.567171,24.2201351 225.8377,24.0848709 226.243492,24.0848709 C226.514021,23.9496067 226.784549,23.9496067 227.055077,23.8143425 L227.325606,23.8143425 C227.46087,23.8143425 227.46087,24.0848709 227.46087,24.2201351 C227.325606,24.4906634 227.055077,24.7611918 226.784549,25.0317202 L226.649285,25.1669844 C226.514021,25.1669844 226.514021,25.3022486 226.514021,25.4375127 C226.514021,25.5727769 226.649285,25.7080411 226.784549,25.7080411 C226.919813,25.7080411 227.055077,25.7080411 227.325606,25.5727769 L227.596134,25.5727769 C227.46087,25.4375127 227.46087,25.7080412 227.325606,25.7080411 L227.325606,25.7080411 Z" id="twt"></path>
            </g>
        </g>
    </g>
</svg>