<svg width="40" height="40" viewBox="0 0 40 40" fill="none" xmlns="http://www.w3.org/2000/svg">
<circle cx="20" cy="20" r="20" fill="#EDF0F4"/>
<path d="M13.9766 19.898C13.9197 20.8864 14.6806 21.7326 15.669 21.7895C15.7045 21.7895 15.7401 21.7895 15.7757 21.7895C16.7712 21.7895 17.5747 20.986 17.5676 19.9905C17.5676 18.9949 16.7641 18.1914 15.7685 18.1985C14.8157 18.1985 14.0264 18.9452 13.9766 19.898Z" fill="#0033AD"/>
<path d="M7.27814 19.4358C6.95815 19.4145 6.68083 19.6634 6.66661 19.9834C6.65239 20.3034 6.89416 20.5807 7.21414 20.5949C7.53413 20.6162 7.80434 20.3674 7.82567 20.0474C7.847 19.7274 7.59813 19.4572 7.27814 19.4358Z" fill="#0033AD"/>
<path d="M13.8629 9.47367C14.1474 9.33145 14.2611 8.97591 14.1189 8.69148C13.9767 8.40705 13.6212 8.29328 13.3367 8.43549C13.0523 8.57771 12.9385 8.92614 13.0808 9.21057C13.223 9.50211 13.5714 9.623 13.8629 9.47367C13.8629 9.47367 13.8558 9.47367 13.8629 9.47367Z" fill="#0033AD"/>
<path d="M15.6831 12.6523C16.1239 12.4319 16.3017 11.8914 16.0813 11.4506C15.8608 11.0097 15.3204 10.8319 14.8795 11.0524C14.4387 11.2728 14.2609 11.8132 14.4813 12.2541C14.7018 12.695 15.2422 12.8727 15.6831 12.6523Z" fill="#0033AD"/>
<path d="M9.55368 14.8352C9.89499 15.0557 10.3501 14.9632 10.5776 14.6219C10.7981 14.2806 10.7056 13.8255 10.3643 13.598C10.023 13.3775 9.5679 13.47 9.34035 13.8113C9.11281 14.1526 9.21236 14.6148 9.55368 14.8352Z" fill="#0033AD"/>
<path d="M10.6416 19.116C10.1438 19.0876 9.72429 19.4644 9.69585 19.9622C9.6674 20.46 10.0443 20.8795 10.542 20.9079C11.0398 20.9364 11.4593 20.5595 11.4878 20.0617C11.5162 19.5711 11.1393 19.1445 10.6416 19.116Z" fill="#0033AD"/>
<path d="M9.65267 25.1388C9.29002 25.3237 9.14069 25.7646 9.32557 26.1343C9.51045 26.497 9.95132 26.6463 10.3211 26.4614C10.6837 26.2765 10.8331 25.8357 10.6482 25.4659C10.4633 25.1032 10.0153 24.9539 9.65267 25.1388Z" fill="#0033AD"/>
<path d="M13.1373 17.2601C13.628 17.58 14.2821 17.4449 14.595 16.9543C14.915 16.4636 14.7799 15.8095 14.2893 15.4966C13.7986 15.1766 13.1444 15.3117 12.8315 15.8023C12.5116 16.2859 12.6467 16.9401 13.1373 17.2601Z" fill="#0033AD"/>
<path d="M24.1946 12.581C24.6071 12.8512 25.1688 12.7375 25.439 12.325C25.7092 11.9126 25.5955 11.3509 25.183 11.0806C24.7706 10.8104 24.2088 10.9242 23.9386 11.3366C23.6613 11.7562 23.7751 12.3108 24.1946 12.581Z" fill="#0033AD"/>
<path d="M26.0297 9.41691C26.3 9.59468 26.6555 9.51646 26.8333 9.24625C27.011 8.97604 26.9328 8.6205 26.6626 8.44273C26.3924 8.26496 26.0369 8.34318 25.8591 8.60628C25.6884 8.87649 25.7666 9.23914 26.0297 9.41691Z" fill="#0033AD"/>
<path d="M24.33 18.1844C23.3416 18.1275 22.4883 18.8884 22.4385 19.8768C22.3817 20.8652 23.1425 21.7185 24.1309 21.7682C24.1665 21.7682 24.202 21.7682 24.2305 21.7682C25.2189 21.7682 26.0224 20.9647 26.0224 19.9692C26.0295 19.0235 25.2829 18.2342 24.33 18.1844Z" fill="#0033AD"/>
<path d="M16.2737 17.132C16.5795 17.7365 17.1981 18.1204 17.8807 18.1204C18.8691 18.1204 19.6727 17.3169 19.6727 16.3214C19.6727 16.0441 19.6087 15.7668 19.4807 15.5108C19.0327 14.6219 17.9519 14.2664 17.0701 14.7144C16.1813 15.1695 15.8257 16.2503 16.2737 17.132Z" fill="#0033AD"/>
<path d="M30.3456 14.8352C30.7082 14.6503 30.8504 14.2023 30.6656 13.8397C30.4807 13.477 30.0327 13.3348 29.6701 13.5197C29.3074 13.7046 29.1652 14.1454 29.343 14.5081C29.5349 14.8707 29.9758 15.0201 30.3456 14.8352Z" fill="#0033AD"/>
<path d="M25.7951 15.4042C25.276 15.6673 25.0627 16.3001 25.3257 16.8192C25.5888 17.3383 26.2217 17.5516 26.7408 17.2885C27.2599 17.0254 27.4732 16.3926 27.2101 15.8735C26.947 15.3544 26.3142 15.1482 25.7951 15.4042Z" fill="#0033AD"/>
<path d="M19.9284 9.1466C20.3337 9.16793 20.6821 8.85506 20.7105 8.44974C20.739 8.04443 20.419 7.696 20.0137 7.66756C19.6084 7.64622 19.2599 7.95199 19.2315 8.3573C19.2102 8.76973 19.523 9.11816 19.9284 9.1466Z" fill="#0033AD"/>
<path d="M19.9216 13.7899C20.5047 13.8254 21.0025 13.3775 21.0309 12.7944C21.0665 12.2113 20.6185 11.7135 20.0354 11.6851C19.4523 11.6495 18.9545 12.0975 18.9261 12.6806C18.8977 13.2637 19.3385 13.7614 19.9216 13.7899Z" fill="#0033AD"/>
<path d="M14.2037 24.57C14.7228 24.3069 14.9361 23.674 14.673 23.1549C14.4099 22.6358 13.777 22.4225 13.258 22.6856C12.7389 22.9487 12.5255 23.5816 12.7886 24.1007C13.0517 24.6197 13.6846 24.8331 14.2037 24.57Z" fill="#0033AD"/>
<path d="M20.6033 15.3331C20.0629 16.1651 20.2905 17.2743 21.1224 17.8148C21.9544 18.3552 23.0637 18.1276 23.6041 17.2957C24.1445 16.4637 23.917 15.3544 23.085 14.814C22.7935 14.622 22.4521 14.5225 22.1037 14.5225C21.4993 14.5225 20.9375 14.8282 20.6033 15.3331Z" fill="#0033AD"/>
<path d="M23.7258 22.8421C23.2778 21.9532 22.197 21.5977 21.3152 22.0457C20.4264 22.4937 20.0708 23.5745 20.5188 24.4562C20.9668 25.3451 22.0476 25.7006 22.9294 25.2526C23.8111 24.8118 24.1738 23.7452 23.7329 22.8563C23.7329 22.8492 23.7329 22.8492 23.7258 22.8421Z" fill="#0033AD"/>
<path d="M26.8615 22.7141C26.3709 22.3941 25.7167 22.5292 25.4038 23.0199C25.0838 23.5105 25.2189 24.1647 25.7096 24.4776C26.2002 24.7976 26.8544 24.6625 27.1673 24.1718C27.4873 23.6883 27.3522 23.0341 26.8615 22.7141Z" fill="#0033AD"/>
<path d="M30.3032 20.019C30.3316 19.5213 29.9548 19.1017 29.457 19.0733C28.9593 19.0448 28.5397 19.4217 28.5113 19.9195C28.4828 20.4172 28.8597 20.8368 29.3575 20.8652C29.8481 20.8936 30.2748 20.5097 30.3032 20.019Z" fill="#0033AD"/>
<path d="M32.785 19.379C32.465 19.3576 32.1877 19.6065 32.1734 19.9265C32.1592 20.2465 32.401 20.5238 32.721 20.538C33.041 20.5594 33.3112 20.3105 33.3325 19.9905C33.3467 19.6705 33.105 19.4003 32.785 19.379Z" fill="#0033AD"/>
<path d="M30.4452 25.1387C30.1038 24.9183 29.6487 25.0107 29.4212 25.3521C29.2008 25.6934 29.2932 26.1485 29.6345 26.376C29.9758 26.5964 30.4309 26.504 30.6585 26.1627C30.886 25.8214 30.7865 25.3592 30.4452 25.1387Z" fill="#0033AD"/>
<path d="M13.9618 30.5572C13.6916 30.3795 13.3361 30.4577 13.1583 30.7208C12.9805 30.991 13.0588 31.3465 13.3219 31.5243C13.5921 31.7021 13.9476 31.6238 14.1254 31.3607C14.3103 31.0976 14.232 30.735 13.9618 30.5572Z" fill="#0033AD"/>
<path d="M26.1356 30.5002C25.8511 30.6424 25.7374 30.998 25.8796 31.2824C26.0218 31.5668 26.3773 31.6806 26.6618 31.5384C26.9462 31.3962 27.06 31.0477 26.9178 30.7633C26.7755 30.4718 26.4271 30.3509 26.1356 30.5002C26.1427 30.5002 26.1356 30.5002 26.1356 30.5002Z" fill="#0033AD"/>
<path d="M19.3946 24.6409C19.935 23.809 19.7075 22.6997 18.8755 22.1522C18.0436 21.6117 16.9343 21.8393 16.3867 22.6712C15.8392 23.5032 16.0739 24.6125 16.9058 25.16C17.1974 25.352 17.5387 25.4516 17.8871 25.4516C18.4986 25.4587 19.0604 25.1529 19.3946 24.6409Z" fill="#0033AD"/>
<path d="M15.804 27.3929C15.3916 27.1227 14.8299 27.2365 14.5597 27.6489C14.2894 28.0613 14.4032 28.6231 14.8156 28.8933C15.2281 29.1635 15.7898 29.0497 16.06 28.6373C16.3373 28.2249 16.2236 27.6631 15.804 27.3929Z" fill="#0033AD"/>
<path d="M19.992 30.8274C19.5866 30.8061 19.2382 31.119 19.2098 31.5243C19.1813 31.9296 19.5013 32.278 19.9066 32.3065C20.3119 32.3278 20.6604 32.0221 20.6888 31.6167C20.7101 31.2043 20.3973 30.8559 19.992 30.8274Z" fill="#0033AD"/>
<path d="M19.999 26.1841C19.4159 26.1486 18.9181 26.5965 18.8897 27.1796C18.8541 27.7627 19.3021 28.2605 19.8852 28.2889C20.4683 28.3173 20.966 27.8765 20.9945 27.2934C21.03 26.7174 20.582 26.2126 19.999 26.1841Z" fill="#0033AD"/>
<path d="M24.3155 27.3219C23.8746 27.5494 23.6969 28.0898 23.9244 28.5307C24.152 28.9716 24.6924 29.1493 25.1332 28.9218C25.5741 28.7013 25.7519 28.1609 25.5314 27.7201C25.3039 27.2792 24.7635 27.0943 24.3155 27.3219Z" fill="#0033AD"/>
</svg>
