<?xml version="1.0" encoding="UTF-8"?>
<svg width="40px" height="40px" viewBox="0 0 40 40" version="1.1" xmlns="http://www.w3.org/2000/svg" xmlns:xlink="http://www.w3.org/1999/xlink">
    <title>BTC 40px</title>
    <g id="页面-2" stroke="none" stroke-width="1" fill="none" fill-rule="evenodd">
        <g id="logo&amp;buttom-svg" transform="translate(-494.000000, -538.000000)">
            <g id="BTC-40px" transform="translate(494.000000, 538.000000)">
                <path d="M39.4016554,24.8380791 C36.73035,35.5523033 25.8770091,42.0729645 15.1601172,39.4013001 C4.44772576,36.729969 -2.07358315,25.8774448 0.599039072,15.1639206 C3.26931436,4.44836298 14.1224985,-2.07267483 24.8360567,0.598469574 C35.5522153,3.26961065 42.0729608,14.1233881 39.401322,24.838279 L39.4016554,24.8380791 L39.4016554,24.8380791 Z" id="路径" fill="#F7931A" fill-rule="nonzero"></path>
                <path d="M28.8201789,17.1504856 C29.2182911,14.4889211 27.1917261,13.0582224 24.4205426,12.1038232 L25.3195454,8.49849289 L23.1245944,7.95162668 L22.249461,11.4620237 C21.6724284,11.3181238 21.0798606,11.1825573 20.4908933,11.0481241 L21.3723941,7.51456039 L19.1788433,6.96769418 L18.2793405,10.5718578 C17.8018525,10.4631246 17.3328656,10.3556913 16.8778469,10.2424914 L16.8803805,10.2311581 L13.8535345,9.47539206 L13.2696677,11.8194234 C13.2696677,11.8194234 14.8980872,12.1926898 14.8637833,12.2156564 C15.7526182,12.4374562 15.9133366,13.0257557 15.8866336,13.4920887 L14.8626165,17.5993852 C14.9238235,17.6149185 15.0031992,17.6374185 15.0908092,17.6726185 L15.0271353,17.6567185 L15.0270686,17.6566851 C14.9728958,17.6431518 14.9165893,17.6290518 14.8587827,17.6152185 L13.4234519,23.3689803 C13.3148395,23.6389801 13.039108,24.0441797 12.4177036,23.8903132 C12.4396728,23.9221798 10.8223879,23.4922469 10.8223879,23.4922469 L9.73266332,26.0044114 L12.5889899,26.7164108 C12.901759,26.7948441 13.2108276,26.8753773 13.516796,26.9551439 L13.517396,26.9553106 C13.7310204,27.0109772 13.9431114,27.0662772 14.1538688,27.1201438 L13.2455983,30.7668074 L15.4379823,31.3136736 L16.3374518,27.70571 C16.9363869,27.8682765 17.51762,28.018243 18.0866518,28.1596096 L17.1902159,31.7505399 L19.3852336,32.2974061 L20.2934041,28.6575758 C24.0361986,29.3658419 26.8504871,29.0802755 28.0350892,25.6953117 C28.9895983,22.970014 27.9875504,21.398082 26.0184919,20.3729828 C27.4526559,20.0422498 28.5329127,19.0990839 28.8209457,17.1507856 L28.8202456,17.1502856 L28.8201789,17.1504856 Z M23.8052722,24.1818129 C23.1829344,26.6822108 19.2687202,25.6484784 17.4778155,25.1755121 C17.3167304,25.1329788 17.1728139,25.0949788 17.0499999,25.0644789 L18.2553044,20.2332829 C18.4049548,20.2706496 18.5878091,20.3116829 18.7949994,20.3581495 L18.7950327,20.3581495 C20.6474779,20.7738492 24.4429118,21.6255151 23.8053722,24.1818129 L23.8052722,24.1818129 Z M19.1666086,18.1159181 C20.6596793,18.5143511 23.9168517,19.383517 24.4840832,17.1109856 L24.4842832,17.1109856 C25.0635161,14.7867542 21.8981209,14.0860215 20.3521441,13.7437884 C20.1782242,13.7052885 20.0247733,13.6713218 19.8994924,13.6400885 L18.8067341,18.0216848 C18.9099125,18.0474181 19.0309597,18.0797181 19.1666086,18.1159181 Z" id="形状" fill="#FFFFFF"></path>
            </g>
        </g>
    </g>
</svg>