<svg width="40" height="40" viewBox="0 0 40 40" fill="none" xmlns="http://www.w3.org/2000/svg">
<circle cx="20" cy="20" r="20" fill="#EDF0F4"/>
<path d="M20.086 6.66675C14.525 6.68909 10.0223 11.1917 10 16.7528C10 17.8665 10.1798 18.9727 10.5319 20.029C10.7946 20.7481 11.5743 21.1352 12.3061 20.9129C13.0135 20.6417 13.389 19.8684 13.1635 19.1451C12.8646 18.3217 12.7316 17.4484 12.7709 16.5741C12.8922 12.5575 16.2461 9.3994 20.2626 9.52067C24.2792 9.64193 27.4373 12.9958 27.316 17.0123C27.2022 20.7725 24.2409 23.8264 20.4849 24.0551C20.4849 24.0551 19.0691 24.1413 18.365 24.2274C18.1054 24.2647 17.848 24.3157 17.5938 24.3806C17.5576 24.4178 17.4991 24.4178 17.4619 24.3817L17.4608 24.3806C17.4353 24.3476 17.4353 24.3008 17.4608 24.2679L17.6799 23.0723L19.0096 17.0921C19.1691 16.3454 18.6937 15.6104 17.9469 15.4508C17.2002 15.2913 16.4652 15.7667 16.3056 16.5135C16.3056 16.5135 13.1432 31.1511 13.1432 31.284C12.9624 31.9957 13.3922 32.719 14.1038 32.8998C14.1112 32.9019 14.1197 32.9041 14.1272 32.9051H14.2006C14.9111 33.0891 15.6366 32.6615 15.8195 31.951C15.8227 31.9393 15.8259 31.9276 15.828 31.9148C15.8259 31.8925 15.8259 31.8701 15.828 31.8489C15.8674 31.6765 16.2663 29.7289 16.2663 29.7289C16.5684 28.2589 17.7533 27.1324 19.2361 26.9048C19.5414 26.858 20.8242 26.7718 20.8242 26.7718C26.364 26.2197 30.4072 21.281 29.854 15.7412C29.3498 10.6886 25.1642 6.79865 20.086 6.66675Z" fill="#1E1E1E"/>
<path d="M20.6981 29.9224C19.7887 29.733 18.8994 30.317 18.7101 31.2254C18.7079 31.2339 18.7069 31.2424 18.7047 31.2509C18.508 32.154 19.0802 33.0465 19.9844 33.2432C19.9854 33.2432 19.9865 33.2432 19.9876 33.2443H20.0344C20.9194 33.4581 21.8097 32.9135 22.0224 32.0296C22.0246 32.0232 22.0256 32.0157 22.0278 32.0093V31.9168C22.1841 31.0041 21.6012 30.1287 20.6981 29.9224Z" fill="#E6007A"/>
</svg>
