<svg width="1024" height="1024" viewBox="0 0 1024 1024" fill="none" xmlns="http://www.w3.org/2000/svg">
<rect width="1024" height="1024" rx="512" fill="#15161B"/>
<path d="M447.623 503.007C447.623 490.664 457.629 480.657 469.972 480.657H494.11C506.454 480.657 516.46 490.664 516.46 503.007V503.007C516.46 515.351 506.454 525.357 494.11 525.357H469.972C457.629 525.357 447.623 515.351 447.623 503.007V503.007Z" fill="white"/>
<path d="M183 468.589C183 422.424 220.424 385 266.589 385C312.753 385 350.177 422.424 350.177 468.589V554.411C350.177 575.889 367.588 593.3 389.066 593.3C410.543 593.3 427.955 575.889 427.955 554.411L427.955 468.589C427.955 422.424 465.378 385 511.543 385C557.708 385 595.132 422.424 595.132 468.589L595.132 554.411C595.132 575.889 612.543 593.3 634.02 593.3C655.498 593.3 672.909 575.889 672.909 554.411V553.108C672.909 553.096 672.909 553.083 672.909 553.071V468.589C672.909 422.424 710.333 385 756.498 385C802.662 385 840.086 422.424 840.086 468.589V610.287C840.086 622.63 830.08 632.637 817.736 632.637C805.393 632.637 795.386 622.63 795.386 610.287V468.589C795.386 447.111 777.975 429.7 756.498 429.7C735.02 429.7 717.609 447.111 717.609 468.589V554.411C717.609 600.576 680.185 638 634.02 638C587.856 638 550.432 600.576 550.432 554.411V553.108C550.432 553.096 550.432 553.083 550.432 553.071V468.589C550.432 447.111 533.021 429.7 511.543 429.7C490.065 429.7 472.654 447.111 472.654 468.589L472.654 554.411C472.654 600.576 435.23 638 389.066 638C342.901 638 305.477 600.576 305.477 554.411L305.477 468.589C305.477 447.111 288.066 429.7 266.589 429.7C245.111 429.7 227.7 447.111 227.7 468.589V610.287C227.7 622.63 217.693 632.637 205.35 632.637C193.006 632.637 183 622.63 183 610.287V468.589Z" fill="#6AE6B9"/>
</svg>
