<svg width="24" height="24" viewBox="0 0 24 24" fill="none" xmlns="http://www.w3.org/2000/svg">
<circle cx="12" cy="12" r="12" fill="#007AF0"/>
<path d="M14.4908 17.8323C14.7965 17.8323 15.0756 17.757 15.3281 17.6065C15.5805 17.4559 15.782 17.2544 15.9325 17.002C16.0831 16.7496 16.1583 16.4705 16.1583 16.1648C16.1583 15.8591 16.0831 15.58 15.9325 15.3276C15.782 15.0751 15.5805 14.8737 15.3281 14.7231C15.0756 14.5726 14.7965 14.4973 14.4908 14.4973C14.1851 14.4973 13.9061 14.5726 13.6536 14.7231C13.4012 14.8737 13.1985 15.0751 13.0457 15.3276C12.8928 15.58 12.8164 15.8591 12.8164 16.1648C12.8164 16.4705 12.8928 16.7496 13.0457 17.002C13.1985 17.2544 13.4012 17.4559 13.6536 17.6065C13.9061 17.757 14.1851 17.8323 14.4908 17.8323ZM14.4908 16.9777C14.2638 16.9777 14.0716 16.8989 13.9142 16.7415C13.7567 16.584 13.678 16.3918 13.678 16.1648C13.678 15.9332 13.7567 15.7398 13.9142 15.5846C14.0716 15.4295 14.2638 15.3519 14.4908 15.3519C14.7178 15.3519 14.91 15.4295 15.0675 15.5846C15.225 15.7398 15.3037 15.9332 15.3037 16.1648C15.3037 16.3918 15.225 16.584 15.0675 16.7415C14.91 16.8989 14.7178 16.9777 14.4908 16.9777ZM13.3861 15.602H5.55583C5.40298 15.602 5.27213 15.6564 5.16328 15.7653C5.05443 15.8741 5 16.0073 5 16.1648C5 16.3176 5.05443 16.4485 5.16328 16.5573C5.27213 16.6662 5.40298 16.7206 5.55583 16.7206H13.3861V15.602ZM18.465 15.602H15.6998V16.7206H18.465C18.6086 16.7206 18.7337 16.6662 18.8402 16.5573C18.9467 16.4485 19 16.3176 19 16.1648C19 16.0073 18.9467 15.8741 18.8402 15.7653C18.7337 15.6564 18.6086 15.602 18.465 15.602ZM9.58561 13.5941C9.89132 13.5941 10.1704 13.5177 10.4228 13.3648C10.6753 13.2119 10.8768 13.0093 11.0273 12.7568C11.1778 12.5044 11.2531 12.2253 11.2531 11.9196C11.2531 11.6139 11.1778 11.3348 11.0273 11.0824C10.8768 10.83 10.6753 10.6285 10.4228 10.4779C10.1704 10.3274 9.89132 10.2521 9.58561 10.2521C9.27991 10.2521 9.00083 10.3274 8.74839 10.4779C8.49595 10.6285 8.29447 10.83 8.14393 11.0824C7.99339 11.3348 7.91812 11.6139 7.91812 11.9196C7.91812 12.2253 7.99339 12.5044 8.14393 12.7568C8.29447 13.0093 8.49595 13.2119 8.74839 13.3648C9.00083 13.5177 9.27991 13.5941 9.58561 13.5941ZM9.58561 12.7325C9.35865 12.7325 9.16643 12.6538 9.00894 12.4963C8.85145 12.3388 8.77271 12.1466 8.77271 11.9196C8.77271 11.688 8.85145 11.4946 9.00894 11.3395C9.16643 11.1843 9.35865 11.1067 9.58561 11.1067C9.81721 11.1067 10.0106 11.1843 10.1658 11.3395C10.3209 11.4946 10.3985 11.688 10.3985 11.9196C10.3985 12.1466 10.3209 12.3388 10.1658 12.4963C10.0106 12.6538 9.81721 12.7325 9.58561 12.7325ZM5.52804 11.3568C5.38908 11.3568 5.26634 11.4113 5.1598 11.5201C5.05327 11.629 5 11.7621 5 11.9196C5 12.0771 5.05327 12.2091 5.1598 12.3156C5.26634 12.4222 5.38908 12.4754 5.52804 12.4754H8.39057V11.3568H5.52804ZM18.4372 11.3568H10.6903V12.4754H18.4372C18.5947 12.4754 18.7279 12.4222 18.8367 12.3156C18.9456 12.2091 19 12.0771 19 11.9196C19 11.7621 18.9456 11.629 18.8367 11.5201C18.7279 11.4113 18.5947 11.3568 18.4372 11.3568ZM14.4908 9.34194C14.7965 9.34194 15.0756 9.26667 15.3281 9.11613C15.5805 8.96559 15.782 8.76411 15.9325 8.51166C16.0831 8.25923 16.1583 7.98015 16.1583 7.67445C16.1583 7.36874 16.0831 7.08967 15.9325 6.83722C15.782 6.58478 15.5805 6.38213 15.3281 6.22928C15.0756 6.07643 14.7965 6 14.4908 6C14.1851 6 13.9061 6.07643 13.6536 6.22928C13.4012 6.38213 13.1985 6.58478 13.0457 6.83722C12.8928 7.08967 12.8164 7.36874 12.8164 7.67445C12.8164 7.98015 12.8928 8.25923 13.0457 8.51166C13.1985 8.76411 13.4012 8.96559 13.6536 9.11613C13.9061 9.26667 14.1851 9.34194 14.4908 9.34194ZM14.4908 8.48735C14.2638 8.48735 14.0716 8.40745 13.9142 8.24765C13.7567 8.08785 13.678 7.89446 13.678 7.6675C13.678 7.44053 13.7567 7.24831 13.9142 7.09082C14.0716 6.93333 14.2638 6.85459 14.4908 6.85459C14.7178 6.85459 14.91 6.93333 15.0675 7.09082C15.225 7.24831 15.3037 7.44053 15.3037 7.6675C15.3037 7.89446 15.225 8.08785 15.0675 8.24765C14.91 8.40745 14.7178 8.48735 14.4908 8.48735ZM13.4208 7.11861H5.55583C5.40298 7.11861 5.27213 7.17304 5.16328 7.28189C5.05443 7.39074 5 7.52159 5 7.67445C5 7.83193 5.05443 7.9651 5.16328 8.07395C5.27213 8.1828 5.40298 8.23722 5.55583 8.23722H13.4208V7.11861ZM18.465 7.11861H15.6025V8.23722H18.465C18.6086 8.23722 18.7337 8.1828 18.8402 8.07395C18.9467 7.9651 19 7.83193 19 7.67445C19 7.52159 18.9467 7.39074 18.8402 7.28189C18.7337 7.17304 18.6086 7.11861 18.465 7.11861Z" fill="white"/>
</svg>
