<svg width="24" height="24" viewBox="0 0 24 24" fill="none" xmlns="http://www.w3.org/2000/svg">
<circle cx="12" cy="12" r="12" fill="white"/>
<circle cx="12" cy="12" r="11.75" stroke="#007AF0" stroke-opacity="0.3" stroke-width="0.5"/>
<path d="M8.65869 16.6742C8.4783 16.8702 8.25084 16.9681 7.97633 16.9681C7.71751 16.9681 7.49595 16.8741 7.31164 16.6859C7.12732 16.4977 7.03516 16.2743 7.03516 16.0157C7.03516 15.757 7.12928 15.5375 7.31752 15.3572L10.6587 12.0059L7.31752 8.65456C7.12928 8.47425 7.03516 8.25475 7.03516 7.99605C7.03516 7.73736 7.12732 7.51786 7.31164 7.33755C7.49595 7.15725 7.71751 7.0671 7.97633 7.0671C8.243 7.0671 8.46261 7.16117 8.63516 7.34932L11.9881 10.6889L15.3764 7.33755C15.5645 7.14157 15.7802 7.04358 16.0234 7.04358C16.2822 7.04358 16.5037 7.13569 16.688 7.31991C16.8724 7.50413 16.9645 7.7256 16.9645 7.9843C16.9645 8.23515 16.8704 8.45465 16.6823 8.64279L13.3293 12.0059L16.6705 15.3454C16.8587 15.5335 16.9528 15.757 16.9528 16.0157C16.9528 16.2743 16.8607 16.4977 16.6764 16.6859C16.492 16.8741 16.2705 16.9681 16.0116 16.9681C15.7528 16.9681 15.5293 16.8702 15.3411 16.6742L11.9881 13.3346L8.65869 16.6742Z" fill="#007AF0"/>
</svg>
