<svg width="32" height="32" viewBox="0 0 32 32" fill="none" xmlns="http://www.w3.org/2000/svg">
<path d="M11.5451 22.2325C11.3046 22.4937 11.0013 22.6244 10.6353 22.6244C10.2902 22.6244 9.99476 22.4989 9.74901 22.248C9.50325 21.9972 9.38037 21.6993 9.38037 21.3544C9.38037 21.0095 9.50586 20.7168 9.75685 20.4764L14.2118 16.008L9.75685 11.5396C9.50586 11.2992 9.38037 11.0065 9.38037 10.6616C9.38037 10.3166 9.50325 10.024 9.74901 9.78357C9.99476 9.54316 10.2902 9.42296 10.6353 9.42296C10.9908 9.42296 11.2836 9.54839 11.5137 9.79925L15.9843 14.252L20.502 9.78357C20.7529 9.52226 21.0405 9.3916 21.3647 9.3916C21.7097 9.3916 22.0051 9.51442 22.2509 9.76005C22.4966 10.0057 22.6195 10.301 22.6195 10.6459C22.6195 10.9804 22.4941 11.273 22.2432 11.5239L17.7726 16.008L22.2274 20.4606C22.4784 20.7115 22.6039 21.0095 22.6039 21.3544C22.6039 21.6993 22.4811 21.9972 22.2353 22.248C21.9895 22.4989 21.6941 22.6244 21.349 22.6244C21.0039 22.6244 20.7059 22.4937 20.4549 22.2325L15.9843 17.7796L11.5451 22.2325Z" fill="white"/>
</svg>
