<?xml version="1.0" encoding="UTF-8"?>
<svg width="30px" height="30px" viewBox="0 0 30 30" version="1.1" xmlns="http://www.w3.org/2000/svg" xmlns:xlink="http://www.w3.org/1999/xlink">
    <title>形状结合</title>
    <g id="Page-1" stroke="none" stroke-width="1" fill="none" fill-rule="evenodd">
        <g id="Button" transform="translate(-309.000000, -775.000000)" fill="#5562EA" fill-rule="nonzero">
            <path d="M324,775 C332.282988,775 339,781.717012 339,790 C339,798.282988 332.282988,805 324,805 C315.717012,805 309,798.282988 309,790 C309,781.717012 315.717012,775 324,775 Z M327.217221,781.858229 C327.189715,781.853161 327.162029,781.866146 327.148542,781.890439 C326.952892,782.242373 326.775284,782.603866 326.616398,782.973541 C325.025197,782.734155 323.406653,782.734155 321.815452,782.973541 C321.655514,782.602928 321.47506,782.241344 321.274915,781.890439 C321.260866,781.866727 321.233608,781.853949 321.2062,781.858229 C319.729902,782.110491 318.292984,782.552002 316.931614,783.17165 C316.91996,783.176546 316.910126,783.184907 316.903471,783.195577 C314.180997,787.224929 313.435208,791.15521 313.801067,795.036821 C313.803146,795.056042 313.813005,795.073604 313.828388,795.08549 C315.41366,796.248782 317.186805,797.136731 319.072157,797.711446 C319.099349,797.71953 319.128744,797.709984 319.145836,797.687519 C319.550768,797.141465 319.909569,796.563243 320.218589,795.958732 C320.227178,795.941953 320.228113,795.922334 320.221158,795.904827 C320.214203,795.887321 320.200022,795.8736 320.182196,795.867128 C319.616394,795.652573 319.068631,795.393931 318.544048,795.093631 C318.524696,795.082356 318.512287,795.062263 318.510961,795.040054 C318.509635,795.017846 318.519566,794.996443 318.537441,794.982984 C318.647826,794.901267 318.756295,794.817039 318.862763,794.730367 C318.88181,794.714819 318.908101,794.711309 318.930621,794.721306 C322.367383,796.275769 326.088146,796.275769 329.484229,794.721306 C329.506818,794.710664 329.533571,794.713875 329.552944,794.729553 C329.659533,794.816683 329.768281,794.901186 329.879088,794.982984 C329.897058,794.996305 329.907146,795.017627 329.905985,795.039838 C329.904823,795.062048 329.892566,795.082223 329.873302,795.093631 C329.349912,795.396457 328.801652,795.654937 328.234368,795.866314 C328.216551,795.873034 328.202468,795.886961 328.195649,795.904605 C328.188831,795.922249 328.189924,795.941936 328.198653,795.958732 C328.512847,796.559881 328.87112,797.137375 329.270586,797.686563 C329.287213,797.709666 329.316884,797.719644 329.344264,797.71134 C331.232995,797.138573 333.009239,796.250541 334.596497,795.08549 C334.612132,795.074181 334.622089,795.056741 334.623819,795.037635 C335.06182,790.550088 333.89053,786.652018 331.519022,783.196391 C331.513185,783.185182 331.503513,783.176399 331.491736,783.171615 C330.130188,782.552499 328.693364,782.111021 327.217221,781.858229 Z M320.731841,788.479664 C321.791309,788.479664 322.635634,789.428971 322.619098,790.576458 C322.619098,791.732262 321.783023,792.673322 320.731841,792.673322 C319.697123,792.673322 318.844549,791.732262 318.844549,790.576529 C318.844549,789.420795 319.680588,788.479664 320.731841,788.479664 Z M327.709723,788.479664 C328.769262,788.479664 329.613551,789.428971 329.597015,790.576458 C329.597015,791.732262 328.769262,792.673322 327.709723,792.673322 C326.675041,792.673322 325.822466,791.732262 325.822466,790.576529 C325.822466,789.420795 326.658505,788.479664 327.709723,788.479664 Z" id="形状结合"></path>
        </g>
    </g>
</svg>