<?xml version="1.0" encoding="UTF-8"?>
<svg width="30px" height="30px" viewBox="0 0 30 30" version="1.1" xmlns="http://www.w3.org/2000/svg" xmlns:xlink="http://www.w3.org/1999/xlink">
    <title>形状结合</title>
    <g id="Page-1" stroke="none" stroke-width="1" fill="none" fill-rule="evenodd">
        <g id="desktop" transform="translate(-1570.000000, -5479.000000)" fill="#5F6368" fill-rule="nonzero">
            <path d="M1585,5479 C1593.28299,5479 1600,5485.71701 1600,5494 C1600,5502.28299 1593.28299,5509 1585,5509 C1576.71701,5509 1570,5502.28299 1570,5494 C1570,5485.71701 1576.71701,5479 1585,5479 Z M1588.21722,5485.85823 C1588.18971,5485.85316 1588.16203,5485.86615 1588.14854,5485.89044 C1587.95289,5486.24237 1587.77528,5486.60387 1587.6164,5486.97354 C1586.0252,5486.73416 1584.40665,5486.73416 1582.81545,5486.97354 C1582.65551,5486.60293 1582.47506,5486.24134 1582.27491,5485.89044 C1582.26087,5485.86673 1582.23361,5485.85395 1582.2062,5485.85823 C1580.7299,5486.11049 1579.29298,5486.552 1577.93161,5487.17165 C1577.91996,5487.17655 1577.91013,5487.18491 1577.90347,5487.19558 C1575.181,5491.22493 1574.43521,5495.15521 1574.80107,5499.03682 C1574.80315,5499.05604 1574.81301,5499.0736 1574.82839,5499.08549 C1576.41366,5500.24878 1578.1868,5501.13673 1580.07216,5501.71145 C1580.09935,5501.71953 1580.12874,5501.70998 1580.14584,5501.68752 C1580.55077,5501.14147 1580.90957,5500.56324 1581.21859,5499.95873 C1581.22718,5499.94195 1581.22811,5499.92233 1581.22116,5499.90483 C1581.2142,5499.88732 1581.20002,5499.8736 1581.1822,5499.86713 C1580.61639,5499.65257 1580.06863,5499.39393 1579.54405,5499.09363 C1579.5247,5499.08236 1579.51229,5499.06226 1579.51096,5499.04005 C1579.50963,5499.01785 1579.51957,5498.99644 1579.53744,5498.98298 C1579.64783,5498.90127 1579.7563,5498.81704 1579.86276,5498.73037 C1579.88181,5498.71482 1579.9081,5498.71131 1579.93062,5498.72131 C1583.36738,5500.27577 1587.08815,5500.27577 1590.48423,5498.72131 C1590.50682,5498.71066 1590.53357,5498.71387 1590.55294,5498.72955 C1590.65953,5498.81668 1590.76828,5498.90119 1590.87909,5498.98298 C1590.89706,5498.9963 1590.90715,5499.01763 1590.90598,5499.03984 C1590.90482,5499.06205 1590.89257,5499.08222 1590.8733,5499.09363 C1590.34991,5499.39646 1589.80165,5499.65494 1589.23437,5499.86631 C1589.21655,5499.87303 1589.20247,5499.88696 1589.19565,5499.9046 C1589.18883,5499.92225 1589.18992,5499.94194 1589.19865,5499.95873 C1589.51285,5500.55988 1589.87112,5501.13738 1590.27059,5501.68656 C1590.28721,5501.70967 1590.31688,5501.71964 1590.34426,5501.71134 C1592.23299,5501.13857 1594.00924,5500.25054 1595.5965,5499.08549 C1595.61213,5499.07418 1595.62209,5499.05674 1595.62382,5499.03764 C1596.06182,5494.55009 1594.89053,5490.65202 1592.51902,5487.19639 C1592.51319,5487.18518 1592.50351,5487.1764 1592.49174,5487.17161 C1591.13019,5486.5525 1589.69336,5486.11102 1588.21722,5485.85823 Z M1581.73184,5492.47966 C1582.79131,5492.47966 1583.63563,5493.42897 1583.6191,5494.57646 C1583.6191,5495.73226 1582.78302,5496.67332 1581.73184,5496.67332 C1580.69712,5496.67332 1579.84455,5495.73226 1579.84455,5494.57653 C1579.84455,5493.4208 1580.68059,5492.47966 1581.73184,5492.47966 Z M1588.70972,5492.47966 C1589.76926,5492.47966 1590.61355,5493.42897 1590.59702,5494.57646 C1590.59702,5495.73226 1589.76926,5496.67332 1588.70972,5496.67332 C1587.67504,5496.67332 1586.82247,5495.73226 1586.82247,5494.57653 C1586.82247,5493.4208 1587.6585,5492.47966 1588.70972,5492.47966 Z" id="形状结合"></path>
        </g>
    </g>
</svg>