<?xml version="1.0" encoding="UTF-8"?>
<svg width="30px" height="30px" viewBox="0 0 30 30" version="1.1" xmlns="http://www.w3.org/2000/svg" xmlns:xlink="http://www.w3.org/1999/xlink">
    <title>形状</title>
    <g id="Page-1" stroke="none" stroke-width="1" fill="none" fill-rule="evenodd">
        <g id="desktop" transform="translate(-1510.000000, -5479.000000)" fill="#5F6368" fill-rule="nonzero">
            <path d="M1525,5479 C1516.71592,5479 1510,5485.71592 1510,5494 C1510,5502.28408 1516.71592,5509 1525,5509 C1533.28408,5509 1540,5502.28408 1540,5494 C1540,5485.71592 1533.28408,5479 1525,5479 Z M1532.74412,5498.51756 C1532.74412,5499.34564 1532.04735,5500.02325 1531.19544,5500.02325 L1518.80453,5500.02325 C1517.95265,5500.02325 1517.25585,5499.34567 1517.25585,5498.51756 L1517.26296,5491.07868 L1524.81443,5495.08331 C1524.93054,5495.14462 1525.06946,5495.14462 1525.18557,5495.08331 L1532.74412,5491.0749 L1532.74412,5498.51756 L1532.74412,5498.51756 Z M1525.00374,5493.6693 L1517.26383,5489.46869 C1517.27134,5488.64682 1517.95766,5487.97675 1518.80456,5487.97675 L1531.19551,5487.97675 C1532.04114,5487.97675 1532.73417,5488.64432 1532.74418,5489.46451 L1525.0038,5493.6693 L1525.00374,5493.6693 Z" id="形状"></path>
        </g>
    </g>
</svg>