<?xml version="1.0" encoding="UTF-8"?>
<svg width="30px" height="30px" viewBox="0 0 30 30" version="1.1" xmlns="http://www.w3.org/2000/svg" xmlns:xlink="http://www.w3.org/1999/xlink">
    <title>形状</title>
    <g id="Page-1" stroke="none" stroke-width="1" fill="none" fill-rule="evenodd">
        <g id="Button" transform="translate(-249.000000, -775.000000)" fill="#D64E42" fill-rule="nonzero">
            <path d="M264,775 C255.715916,775 249,781.715916 249,790 C249,798.284084 255.715916,805 264,805 C272.284084,805 279,798.284084 279,790 C279,781.715916 272.284084,775 264,775 Z M271.744117,794.517563 C271.744117,795.345637 271.047346,796.02325 270.19544,796.02325 L257.804526,796.02325 C256.952654,796.02325 256.25585,795.345671 256.25585,794.517563 L256.262959,787.078675 L263.814426,791.083306 C263.930544,791.144623 264.069456,791.144623 264.185574,791.083306 L271.744117,787.074904 L271.744117,794.517563 L271.744117,794.517563 Z M264.003738,789.669304 L256.263827,785.468686 C256.271337,784.646819 256.957661,783.97675 257.80456,783.97675 L270.195507,783.97675 C271.041138,783.97675 271.734171,784.644316 271.744184,785.464514 L264.003805,789.669304 L264.003738,789.669304 Z" id="形状"></path>
        </g>
    </g>
</svg>