<svg width="24" height="24" viewBox="0 0 24 24" fill="none" xmlns="http://www.w3.org/2000/svg">
<circle cx="12" cy="12" r="12" fill="white"/>
<circle cx="12" cy="12" r="11.75" stroke="#007AF0" stroke-opacity="0.3" stroke-width="0.5"/>
<path d="M5.26275 8.6745C5.91111 9.35947 6.6366 9.94509 7.43921 10.4314C8.24183 10.9176 9.09934 11.2876 10.0118 11.5412C10.9242 11.7948 11.864 11.9216 12.8314 11.9216C13.9765 11.9163 15.0811 11.7281 16.1451 11.3569C17.2092 10.9856 18.183 10.4523 19.0667 9.75686L18.6196 8.87843C17.8092 9.55293 16.9098 10.0693 15.9216 10.4274C14.9333 10.7856 13.9032 10.9673 12.8314 10.9725C11.4405 10.9778 10.1242 10.6928 8.88235 10.1176C7.64052 9.54248 6.58039 8.73725 5.70196 7.70196L5.26275 8.6745ZM4.42353 13.1529C5.44314 14.0209 6.55555 14.7124 7.76078 15.2274C8.96601 15.7425 10.2131 16.0732 11.502 16.2196C12.7908 16.366 14.0758 16.3242 15.3568 16.0941C16.6379 15.864 17.8667 15.4405 19.0431 14.8235L19.0196 13.749C17.8797 14.4078 16.6771 14.864 15.4118 15.1177C14.1464 15.3712 12.8771 15.4248 11.6039 15.2784C10.3307 15.132 9.10065 14.7908 7.91372 14.2549C6.72679 13.719 5.64183 12.9961 4.65882 12.0863L4.42353 13.1529ZM8.31372 18.5412L9.43529 18.8C9.17385 18.1673 8.97254 17.519 8.83136 16.8549C8.69019 16.1908 8.61437 15.5163 8.60391 14.8313C8.53071 13.5294 8.66012 12.264 8.99215 11.0353C9.32418 9.80653 9.83529 8.65751 10.5255 7.58823C11.2157 6.51895 12.0601 5.57647 13.0588 4.76078L12.0549 4.36863C11.0667 5.24706 10.2327 6.24444 9.55293 7.36078C8.8732 8.47712 8.36993 9.66927 8.04313 10.9372C7.71634 12.2052 7.58692 13.5085 7.6549 14.8471C7.66535 15.4745 7.72548 16.0967 7.83529 16.7137C7.94509 17.3307 8.10457 17.9398 8.31372 18.5412ZM13.4823 19.3177L14.3686 18.9255C13.6366 17.8902 13.0758 16.7699 12.6862 15.5647C12.2967 14.3594 12.102 13.1163 12.102 11.8353C12.102 10.617 12.2745 9.4379 12.6196 8.29803C12.9647 7.15817 13.4693 6.09412 14.1333 5.10588L13.2078 4.77647C12.5385 5.82745 12.0287 6.95163 11.6784 8.14902C11.3281 9.3464 11.1529 10.5752 11.1529 11.8353C11.1529 13.1896 11.3516 14.5007 11.749 15.7686C12.1464 17.0366 12.7241 18.2196 13.4823 19.3177ZM18.1019 16.4L18.7372 15.6784C17.8588 15.1764 17.0993 14.5464 16.4588 13.7882C15.8183 13.0301 15.3215 12.1856 14.9686 11.2549C14.6156 10.3242 14.4313 9.3464 14.4157 8.32156C14.4105 7.77254 14.4549 7.22875 14.549 6.69019C14.6431 6.15163 14.7895 5.63137 14.9882 5.12941L14.0706 4.87058C13.8614 5.41961 13.7072 5.98301 13.6078 6.56078C13.5085 7.13856 13.4614 7.7281 13.4666 8.3294C13.4823 9.44313 13.6784 10.5085 14.0549 11.5255C14.4314 12.5425 14.9647 13.4679 15.6549 14.3019C16.3451 15.1359 17.1608 15.8353 18.1019 16.4ZM8.59608 11.8274C8.93072 11.8274 9.21699 11.7072 9.45489 11.4667C9.6928 11.2261 9.81176 10.9359 9.81176 10.5961C9.81176 10.2562 9.6928 9.96731 9.45489 9.72941C9.21699 9.49149 8.93072 9.37254 8.59608 9.37254C8.25097 9.37254 7.95947 9.49149 7.72156 9.72941C7.48365 9.96731 7.3647 10.2562 7.3647 10.5961C7.3647 10.9359 7.48365 11.2261 7.72156 11.4667C7.95947 11.7072 8.25097 11.8274 8.59608 11.8274ZM14.6039 12.4784C14.9333 12.4784 15.2157 12.3594 15.451 12.1216C15.6863 11.8836 15.8039 11.5974 15.8039 11.2627C15.8039 10.9333 15.6863 10.651 15.451 10.4157C15.2157 10.1804 14.9333 10.0627 14.6039 10.0627C14.2641 10.0627 13.9765 10.1804 13.7412 10.4157C13.5059 10.651 13.3883 10.9333 13.3883 11.2627C13.3883 11.5974 13.5059 11.8836 13.7412 12.1216C13.9765 12.3594 14.2641 12.4784 14.6039 12.4784ZM12.2667 17.0118C12.6013 17.0118 12.8876 16.8928 13.1255 16.6549C13.3634 16.417 13.4823 16.1281 13.4823 15.7882C13.4823 15.4484 13.3634 15.1595 13.1255 14.9215C12.8876 14.6836 12.6013 14.5647 12.2667 14.5647C11.9216 14.5647 11.6301 14.6836 11.3921 14.9215C11.1542 15.1595 11.0353 15.4484 11.0353 15.7882C11.0353 16.1281 11.1542 16.417 11.3921 16.6549C11.6301 16.8928 11.9216 17.0118 12.2667 17.0118ZM12 20C13.0928 20 14.1216 19.7908 15.0863 19.3725C16.051 18.9542 16.902 18.3765 17.6392 17.6392C18.3765 16.902 18.9542 16.051 19.3725 15.0863C19.7908 14.1216 20 13.0928 20 12C20 10.9072 19.7908 9.87842 19.3725 8.91372C18.9542 7.94902 18.3765 7.09804 17.6392 6.36078C16.902 5.62353 16.0497 5.04575 15.0823 4.62745C14.115 4.20915 13.085 4 11.9921 4C10.8993 4 9.87058 4.20915 8.90588 4.62745C7.94117 5.04575 7.0915 5.62353 6.35686 6.36078C5.62222 7.09804 5.04575 7.94902 4.62745 8.91372C4.20915 9.87842 4 10.9072 4 12C4 13.0928 4.20915 14.1216 4.62745 15.0863C5.04575 16.051 5.62353 16.902 6.36078 17.6392C7.09804 18.3765 7.94902 18.9542 8.91372 19.3725C9.87842 19.7908 10.9072 20 12 20ZM12 18.9334C11.0536 18.9334 10.1621 18.7516 9.32548 18.3882C8.48888 18.0248 7.75163 17.5241 7.11372 16.8862C6.47581 16.2483 5.97516 15.5111 5.61177 14.6745C5.24836 13.8379 5.06666 12.9464 5.06666 12C5.06666 11.0536 5.24836 10.1621 5.61177 9.32548C5.97516 8.48888 6.47451 7.75163 7.1098 7.11372C7.74509 6.47581 8.48104 5.97516 9.31764 5.61177C10.1542 5.24836 11.0457 5.06666 11.9921 5.06666C12.9386 5.06666 13.8301 5.24836 14.6666 5.61177C15.5033 5.97516 16.2418 6.47581 16.8823 7.11372C17.5228 7.75163 18.0248 8.48888 18.3882 9.32548C18.7516 10.1621 18.9334 11.0536 18.9334 12C18.9334 12.9464 18.7516 13.8379 18.3882 14.6745C18.0248 15.5111 17.5241 16.2483 16.8862 16.8862C16.2483 17.5241 15.5111 18.0248 14.6745 18.3882C13.8379 18.7516 12.9464 18.9334 12 18.9334Z" fill="#007AF0"/>
</svg>
