<?xml version="1.0" encoding="UTF-8"?>
<svg width="210px" height="210px" viewBox="0 0 210 210" version="1.1" xmlns="http://www.w3.org/2000/svg" xmlns:xlink="http://www.w3.org/1999/xlink">
    <title>编组 4</title>
    <defs>
        <linearGradient x1="-2.89743889e-07%" y1="50%" x2="100%" y2="50%" id="linearGradient-1">
            <stop stop-color="#084C8A" offset="0%"></stop>
            <stop stop-color="#1572CB" offset="100%"></stop>
        </linearGradient>
        <path d="M65,0 C29.2105263,0 0,29.2105263 0,65 C0,100.789474 29.2105263,130 65,130 C100.789474,130 130,100.789474 130,65 C130,29.2105263 100.789474,0 65,0 Z" id="path-2"></path>
        <filter x="-47.7%" y="-44.6%" width="195.4%" height="195.4%" filterUnits="objectBoundingBox" id="filter-3">
            <feOffset dx="0" dy="4" in="SourceAlpha" result="shadowOffsetOuter1"></feOffset>
            <feGaussianBlur stdDeviation="20" in="shadowOffsetOuter1" result="shadowBlurOuter1"></feGaussianBlur>
            <feColorMatrix values="0 0 0 0 0   0 0 0 0 0   0 0 0 0 0  0 0 0 0.1 0" type="matrix" in="shadowBlurOuter1" result="shadowMatrixOuter1"></feColorMatrix>
            <feOffset dx="0" dy="4" in="SourceAlpha" result="shadowOffsetOuter2"></feOffset>
            <feGaussianBlur stdDeviation="7" in="shadowOffsetOuter2" result="shadowBlurOuter2"></feGaussianBlur>
            <feColorMatrix values="0 0 0 0 0   0 0 0 0 0   0 0 0 0 0  0 0 0 0.1 0" type="matrix" in="shadowBlurOuter2" result="shadowMatrixOuter2"></feColorMatrix>
            <feMerge>
                <feMergeNode in="shadowMatrixOuter1"></feMergeNode>
                <feMergeNode in="shadowMatrixOuter2"></feMergeNode>
            </feMerge>
        </filter>
        <radialGradient cx="50%" cy="50%" fx="50%" fy="50%" r="80.970019%" gradientTransform="translate(0.500000,0.500000),scale(0.785079,1.000000),rotate(38.134712),translate(-0.500000,-0.500000)" id="radialGradient-4">
            <stop stop-color="#FFFFFF" offset="0%"></stop>
            <stop stop-color="#C2C4CD" offset="100%"></stop>
        </radialGradient>
    </defs>
    <g id="Page-1" stroke="none" stroke-width="1" fill="none" fill-rule="evenodd">
        <g id="desktop" transform="translate(-1364.000000, -1196.000000)" fill-rule="nonzero">
            <g id="编组-4" transform="translate(1404.000000, 1232.000000)">
                <g id="形状">
                    <use fill="black" fill-opacity="1" filter="url(#filter-3)" xlink:href="#path-2"></use>
                    <use fill="url(#linearGradient-1)" xlink:href="#path-2"></use>
                </g>
                <path d="M17.9599252,64.8889041 C17.9599252,51.4678514 23.7493989,39.0994304 32.9599252,30.6783778 C36.6441357,27.2573251 42.9599252,28.3099567 45.5915041,32.7836409 L61.9072936,60.9415356 C63.486241,63.5731146 63.486241,66.7310093 61.9072936,69.3625883 L45.5915041,97.520483 C42.9599252,102.257325 36.6441357,103.046799 32.6967673,99.3625883 C23.7493989,90.4152199 17.9599252,78.3099567 17.9599252,64.8889041 Z M84.0125568,96.9941672 L67.6967673,68.8362725 C66.1178199,66.2046935 66.1178199,63.0467988 67.6967673,60.4152199 L84.0125568,32.2573251 C86.6441357,27.7836409 92.6967673,26.7310093 96.6441357,30.152062 C105.854662,38.5731146 111.644136,50.9415356 111.644136,64.3625883 C111.644136,77.7836409 105.854662,90.152062 96.6441357,98.5731146 C92.6967673,102.783641 86.6441357,101.731009 84.0125568,96.9941672 Z" id="形状结合" fill="url(#radialGradient-4)" opacity="0.916015625" transform="translate(64.802030, 64.901528) rotate(-60.000000) translate(-64.802030, -64.901528) "></path>
            </g>
        </g>
    </g>
</svg>