<?xml version="1.0" encoding="UTF-8"?>
<svg width="20px" height="20px" viewBox="0 0 20 20" version="1.1" xmlns="http://www.w3.org/2000/svg" xmlns:xlink="http://www.w3.org/1999/xlink">
    <title>learn more</title>
    <g id="页面-1" stroke="none" stroke-width="1" fill="none" fill-rule="evenodd">
        <g id="List-&amp;-pop-up-&amp;-button" transform="translate(-424.000000, -1513.000000)" fill="#007AF0">
            <g id="learn-more" transform="translate(424.000000, 1513.000000)">
                <path d="M10,0 C15.5228475,-1.01453063e-15 20,4.4771525 20,10 C20,15.5228475 15.5228475,20 10,20 C4.4771525,20 6.76353751e-16,15.5228475 0,10 C-6.76353751e-16,4.4771525 4.4771525,1.01453063e-15 10,0 Z M9.79268293,12.6309524 C9.25609756,12.6309524 8.80487805,13.0714286 8.80487805,13.6071429 C8.80487805,14.1309524 9.25609756,14.5714286 9.79268293,14.5714286 C10.3414634,14.5714286 10.7804878,14.1309524 10.7804878,13.6071429 C10.7804878,13.0714286 10.3414634,12.6309524 9.79268293,12.6309524 Z M10.1219512,6 C8.7195122,6 7.53658537,6.70238095 7,7.83333333 L8.34146341,8.38095238 C8.67073171,7.75 9.31707317,7.36904762 10.0609756,7.36904762 C10.804878,7.36904762 11.3658537,7.77380952 11.3658537,8.30952381 C11.3658537,8.6547619 11.1463415,8.94047619 10.6463415,9.29761905 L10.0243902,9.73809524 C9.25609756,10.297619 9.02439024,10.8333333 9.08536585,11.9285714 L10.4878049,11.9285714 C10.4634146,11.2857143 10.6463415,10.9285714 11.1585366,10.5833333 L11.4878049,10.3571429 C12.6219512,9.5952381 13,9.08333333 13,8.21428571 C13,6.95238095 11.7560976,6 10.1219512,6 Z" id="形状结合"></path>
            </g>
        </g>
    </g>
</svg>