<?xml version="1.0" encoding="UTF-8"?>
<svg width="370px" height="205px" viewBox="0 0 370 205" version="1.1" xmlns="http://www.w3.org/2000/svg" xmlns:xlink="http://www.w3.org/1999/xlink">
    <title>编组 30</title>
    <defs>
        <radialGradient cx="84.7433765%" cy="50%" fx="84.7433765%" fy="50%" r="160.916591%" gradientTransform="translate(0.847434,0.500000),scale(0.554054,1.000000),rotate(161.897375),translate(-0.847434,-0.500000)" id="radialGradient-1">
            <stop stop-color="#F0F0F0" offset="0%"></stop>
            <stop stop-color="#C2C4CD" offset="100%"></stop>
        </radialGradient>
        <linearGradient x1="-2.89743889e-07%" y1="50%" x2="100%" y2="50%" id="linearGradient-2">
            <stop stop-color="#000000" offset="0%"></stop>
            <stop stop-color="#313131" offset="100%"></stop>
        </linearGradient>
        <linearGradient x1="7.45943689e-14%" y1="50%" x2="100%" y2="50%" id="linearGradient-3">
            <stop stop-color="#000000" offset="0%"></stop>
            <stop stop-color="#313131" offset="100%"></stop>
        </linearGradient>
        <linearGradient x1="-2.89743889e-07%" y1="50%" x2="100%" y2="50%" id="linearGradient-4">
            <stop stop-color="#084C8A" offset="0%"></stop>
            <stop stop-color="#1572CB" offset="100%"></stop>
        </linearGradient>
        <linearGradient x1="-2.89743889e-07%" y1="50%" x2="100%" y2="50%" id="linearGradient-5">
            <stop stop-color="#084C8A" offset="0%"></stop>
            <stop stop-color="#1572CB" offset="100%"></stop>
        </linearGradient>
        <rect id="path-6" x="0" y="0" width="133.481771" height="71.7818428" rx="10.2678571"></rect>
        <filter x="-11.2%" y="-20.9%" width="122.5%" height="141.8%" filterUnits="objectBoundingBox" id="filter-7">
            <feOffset dx="0" dy="0" in="SourceAlpha" result="shadowOffsetOuter1"></feOffset>
            <feGaussianBlur stdDeviation="5" in="shadowOffsetOuter1" result="shadowBlurOuter1"></feGaussianBlur>
            <feColorMatrix values="0 0 0 0 0   0 0 0 0 0   0 0 0 0 0  0 0 0 0.5 0" type="matrix" in="shadowBlurOuter1"></feColorMatrix>
        </filter>
        <rect id="path-8" x="5.13391429" y="5.12727448" width="61.6069714" height="61.5272938" rx="6.16071429"></rect>
        <filter x="-8.1%" y="-8.1%" width="116.2%" height="116.3%" filterUnits="objectBoundingBox" id="filter-9">
            <feGaussianBlur stdDeviation="5" in="SourceAlpha" result="shadowBlurInner1"></feGaussianBlur>
            <feOffset dx="0" dy="0" in="shadowBlurInner1" result="shadowOffsetInner1"></feOffset>
            <feComposite in="shadowOffsetInner1" in2="SourceAlpha" operator="arithmetic" k2="-1" k3="1" result="shadowInnerInner1"></feComposite>
            <feColorMatrix values="0 0 0 0 0   0 0 0 0 0   0 0 0 0 0  0 0 0 0.5 0" type="matrix" in="shadowInnerInner1"></feColorMatrix>
        </filter>
    </defs>
    <g id="页面-1" stroke="none" stroke-width="1" fill="none" fill-rule="evenodd">
        <g id="编组-30" transform="translate(0.000000, -0.072783)" fill-rule="nonzero">
            <rect id="矩形" fill="url(#radialGradient-1)" x="0.17960002" y="0" width="370" height="205"></rect>
            <path d="M153.000306,0.07121892 C173.149152,28.846188 185,64.0515296 185,102.072783 C185,140.536417 172.871777,176.118231 152.293642,205.076127 L2.84217094e-14,205.072783 L2.84217094e-14,0.0727834675 Z" id="形状结合" fill="url(#linearGradient-2)"></path>
            <path d="M11.9876029,18.4822275 C58.2043387,18.4822275 95.6704057,55.8998389 95.6704057,102.056802 C95.6704057,148.213764 58.2043387,185.631376 11.9876029,185.631376 C7.97914985,185.631376 4.03652265,185.349906 0.178456002,184.805678 L0.178456002,19.3079251 C4.03652265,18.7636969 7.97914985,18.4822275 11.9876029,18.4822275 Z" id="形状结合" fill="url(#linearGradient-3)"></path>
            <g id="编组-3" transform="translate(279.928699, 72.374500)" fill="url(#linearGradient-4)">
                <path d="M34.5777333,59.8182023 L34.5777333,49.9580591 L0,49.9580591 L0,36.8112014 L55.3243731,36.8112014 L34.5777333,59.8182023 Z M27.8825463,0 L27.8825463,9.8601432 L55.5447329,9.8601432 L55.5447329,23.0070009 L0.220359791,23.0070009 L27.8825463,0 Z" id="形状结合"></path>
            </g>
            <g id="编组-4" transform="translate(118.259629, 66.563589)">
                <g id="矩形">
                    <use fill="black" fill-opacity="1" filter="url(#filter-7)" xlink:href="#path-6"></use>
                    <use fill="url(#linearGradient-5)" xlink:href="#path-6"></use>
                </g>
                <g id="矩形" opacity="0.572684152">
                    <use fill="#000000" xlink:href="#path-8"></use>
                    <use fill="black" fill-opacity="1" filter="url(#filter-9)" xlink:href="#path-8"></use>
                </g>
                <polygon id="路径" fill="#FFFFFF" points="93.9335701 52.2981997 103.612007 38.9848653 113.243912 52.2981997 119.106811 52.2981997 106.496925 35.2815082 118.129662 19.483643 112.452886 19.483643 103.705069 31.625029 94.9107199 19.483643 89.0012899 19.483643 100.773619 35.3283861 88.3033257 52.2981997"></polygon>
                <g id="5" transform="translate(21.742127, 18.458188)" fill="#FFFFFF">
                    <path d="M1.95088743,18.8170974 L6.52007114,20.2014615 C8.624976,19.2785521 10.9865766,18.7658246 13.1428206,18.7658246 C17.6606651,18.7658246 20.843692,21.1243709 20.843692,24.5596448 C20.843692,28.1487369 17.9687,30.5072832 13.6048729,30.5072832 C10.062472,30.5072832 7.39283657,29.4818283 4.26114886,26.8669183 L0,31.6352836 C3.59374,34.762921 8.265602,36.4549216 13.3995163,36.4549216 C22.1271706,36.4549216 28.031172,31.4814653 28.031172,24.2007356 C28.031172,17.5865515 22.7432403,13.1770954 14.8883514,13.1770954 C12.4754117,13.1770954 10.3191677,13.4847319 8.16292371,14.2538231 L8.52229771,5.89636566 L25.9776063,5.89636566 L25.9776063,0 L2.82365286,0 L1.95088743,18.8170974 Z" id="路径"></path>
                </g>
            </g>
            <path d="M136.538508,43.3569012 C136.538508,38.8654088 133.519766,35.2968258 128.77603,33.6355888 C132.718876,31.5436608 135.183155,27.9750778 135.183155,23.6681672 C135.183155,16.5925284 128.652816,11.6088176 119.350163,11.6088176 C113.004645,11.6088176 106.843948,14.2544913 102.593067,18.7459837 L108.322515,23.9758037 C112.018933,20.2841661 114.791247,18.9305656 119.042128,18.9305656 C123.47783,18.9305656 126.743,21.3301301 126.743,24.5295493 C126.743,28.1596597 123.47783,30.8053333 118.980521,30.8053333 L115.900173,30.8053333 L115.900173,37.5118083 L119.843019,37.5118083 C124.833183,37.5118083 128.036746,39.542209 128.036746,42.7416283 C128.036746,46.3102113 124.463542,48.7097758 119.165342,48.7097758 C114.298391,48.7097758 111.341257,47.4792299 107.891266,44.0337015 L102.223425,49.2635214 C106.227878,53.5089047 112.511789,55.9699965 119.226949,55.9699965 C129.268885,55.9699965 136.538508,50.6786492 136.538508,43.3569012 Z" id="路径" fill="#444444" transform="translate(119.380967, 33.789407) rotate(-20.000000) translate(-119.380967, -33.789407) "></path>
            <path d="M106.78583,168.34815 C110.556137,157.989317 119.129278,153.198005 127.95775,156.411305 C136.834464,159.642165 140.273833,168.805674 136.503526,179.164507 C132.698146,189.619702 124.239027,194.397951 115.314069,191.149532 C106.437355,187.918672 102.98045,178.803345 106.78583,168.34815 Z M125.870929,162.144799 C120.708926,160.265984 115.845768,163.570327 113.250393,170.701059 C110.619947,177.928152 112.238888,183.537223 117.40089,185.416039 C122.611136,187.312413 127.456758,184.05625 130.087205,176.829157 C132.682579,169.698425 131.032931,164.023614 125.870929,162.144799 Z M104.463475,148.460285 L108.660617,149.98792 L96.385199,183.714354 L89.7759061,181.308768 L99.6137769,154.27944 L92.0224506,154.571969 L94.1092716,148.838475 L104.463475,148.460285 Z" id="形状结合" fill="#444444"></path>
        </g>
    </g>
</svg>