<svg width="24" height="24" viewBox="0 0 24 24" fill="none" xmlns="http://www.w3.org/2000/svg">
<path d="M5.73638 22.3973C2.74842 20.6822 0.738965 17.8203 0.0480579 14.7055C-0.240023 13.4528 0.80614 12.1894 2.14038 12.1787L10.5064 12.1656C11.2953 12.1524 11.9983 12.556 12.3812 13.2418L16.5529 20.4514C17.2692 21.6392 16.6332 23.138 15.3056 23.5409C12.1635 24.3779 8.72434 24.1124 5.73638 22.3973ZM21.6249 11.8801L13.2588 11.8931C12.47 11.9063 11.7669 11.5027 11.384 10.8169L7.21233 3.60734C6.55459 2.45318 7.09823 0.978986 8.36725 0.542457C11.4259 -0.420062 14.9237 -0.120937 17.9117 1.59414C20.8996 3.30921 22.9091 6.1712 23.6 9.28597C24.03 10.6977 23.0177 11.9029 21.6249 11.8801Z" fill="#007AF0"/>
</svg>
