<svg width="32" height="32" viewBox="0 0 32 32" fill="none" xmlns="http://www.w3.org/2000/svg">
<path d="M5.45792 32H26.5421C28.3615 32 29.7259 31.551 30.6356 30.653C31.5452 29.7549 32.0001 28.4079 32.0001 26.6117V5.3884C32.0001 3.59226 31.5452 2.24516 30.6356 1.3471C29.7259 0.449032 28.3615 0 26.5421 0H5.45792C3.63861 0 2.27413 0.449032 1.36448 1.3471C0.454827 2.24516 0 3.59226 0 5.3884V26.6117C0 28.4079 0.454827 29.7549 1.36448 30.653C2.27413 31.551 3.63861 32 5.45792 32Z" fill="#FF3B30"/>
<path d="M8.13476 22.4403C7.68283 22.4403 7.3265 22.3302 7.06578 22.11C6.80505 21.8899 6.67468 21.606 6.67468 21.2583C6.67468 20.7484 6.87747 20.2704 7.28306 19.8242C7.68862 19.378 8.10579 18.929 8.53454 18.4772C8.75472 18.2454 8.92274 17.947 9.03861 17.582C9.1545 17.217 9.23851 16.8317 9.29066 16.4261C9.3428 16.0205 9.38046 15.6323 9.40364 15.2615C9.45 13.3379 9.75708 11.7388 10.3249 10.4641C10.8927 9.18943 11.8313 8.30875 13.1407 7.82205C13.3493 7.18471 13.6999 6.64008 14.1924 6.18815C14.6848 5.73622 15.2961 5.51025 16.0262 5.51025C16.7562 5.51025 17.3675 5.73622 17.86 6.18815C18.3524 6.64008 18.7029 7.18471 18.9115 7.82205C20.221 8.30875 21.1596 9.18943 21.7274 10.4641C22.2951 11.7388 22.5964 13.3379 22.6312 15.2615C22.666 15.6323 22.7065 16.0234 22.7529 16.4348C22.7993 16.8462 22.8804 17.2315 22.9963 17.5907C23.1122 17.9499 23.286 18.2454 23.5178 18.4772C23.9581 18.9175 24.3782 19.3636 24.7779 19.8155C25.1777 20.2675 25.3776 20.7484 25.3776 21.2583C25.3776 21.606 25.2472 21.8899 24.9865 22.11C24.7258 22.3302 24.3637 22.4403 23.9001 22.4403H8.13476ZM16.0262 26.5944C15.1802 26.5944 14.4792 26.3308 13.9229 25.8036C13.3667 25.2764 13.0596 24.6536 13.0017 23.9351H19.0506C18.9926 24.6536 18.6856 25.2764 18.1293 25.8036C17.5731 26.3308 16.8721 26.5944 16.0262 26.5944Z" fill="white"/>
</svg>
