<?xml version="1.0" encoding="UTF-8"?>
<svg width="156px" height="60px" viewBox="0 0 156 60" version="1.1" xmlns="http://www.w3.org/2000/svg" xmlns:xlink="http://www.w3.org/1999/xlink">
    <title>编组 25</title>
    <defs>
        <linearGradient x1="50%" y1="100%" x2="50%" y2="-2.58126853e-13%" id="linearGradient-1">
            <stop stop-color="#4851BC" offset="0%"></stop>
            <stop stop-color="#747DF7" offset="100%"></stop>
        </linearGradient>
    </defs>
    <g id="Page-1" stroke="none" stroke-width="1" fill="none" fill-rule="evenodd">
        <g id="pop-up" transform="translate(-270.000000, -573.000000)" fill-rule="nonzero">
            <g id="编组-25" transform="translate(270.000000, 573.000000)">
                <g id="Launch-ABEx" fill="url(#linearGradient-1)">
                    <rect id="矩形" x="0" y="0" width="156" height="60" rx="10"></rect>
                </g>
                <g id="编组-23" transform="translate(61.000000, 17.000000)" fill="#FFFFFF" opacity="0.916015625">
                    <path d="M28.8267161,2.11142792 C28.817266,2.09375604 28.8016053,2.07990839 28.782539,2.07236532 C26.578127,1.0962824 24.2518404,0.400258859 21.8618956,0.00171302799 C21.8173612,-0.00627720042 21.7725371,0.0141935339 21.7507013,0.0524944 C21.4339337,0.607344486 21.1463789,1.17726693 20.8891336,1.76008779 C18.3129037,1.38267716 15.6924042,1.38267716 13.1161743,1.76008779 C12.857226,1.17578699 12.565063,0.605722469 12.2410181,0.0524944 C12.218273,0.0151098004 12.1741401,-0.00503479777 12.129766,0.00171302799 C9.73956863,0.399422156 7.41313091,1.09549803 5.20900694,2.07242113 C5.19013875,2.08014073 5.17421819,2.09332144 5.16344215,2.11014443 C0.755627293,8.46272666 -0.451839549,14.6591143 0.140502675,20.7787719 C0.14386945,20.8090752 0.1598318,20.8367636 0.184737525,20.855502 C2.75136727,22.6895204 5.62217369,24.0894408 8.67464841,24.9955231 C8.71867339,25.0082682 8.76626616,24.9932178 8.79393794,24.9577998 C9.4495433,24.0969049 10.0304589,23.1852933 10.5307774,22.2322352 C10.5446829,22.2057817 10.5461963,22.1748506 10.5349357,22.1472503 C10.523675,22.11965 10.5007163,22.098018 10.4718554,22.0878152 C9.55579398,21.7495519 8.66893952,21.3417835 7.81961478,20.8683368 C7.78828296,20.8505613 7.76819313,20.8188837 7.76604597,20.7838697 C7.76389881,20.7488557 7.77997684,20.7151124 7.80891746,20.6938944 C7.98763592,20.5650607 8.16325348,20.4322684 8.33563021,20.2956234 C8.36646837,20.2711116 8.40903378,20.2655768 8.44549454,20.2813376 C14.0097761,22.732069 20.0338687,22.732069 25.5322895,20.2813376 C25.5688613,20.2645603 25.6121767,20.2696227 25.6435416,20.2943399 C25.8161142,20.4317073 25.9921823,20.564933 26.1715842,20.6938944 C26.2006796,20.7148947 26.2170118,20.7485113 26.2151314,20.7835278 C26.2132511,20.8185444 26.1934057,20.8503515 26.1622169,20.8683368 C25.3148234,21.3457662 24.427165,21.7532792 23.5087041,22.0865317 C23.4798573,22.0971257 23.4570566,22.119083 23.4460174,22.1468996 C23.4349782,22.1747161 23.4367472,22.2057548 23.4508808,22.2322352 C23.9595758,23.1799932 24.5396359,24.0904563 25.1863903,24.9562931 C25.2133107,24.9927173 25.2613497,25.0084482 25.3056798,24.9953557 C28.3636245,24.0923453 31.2394485,22.6922947 33.8092948,20.855502 C33.8346084,20.8376729 33.8507289,20.8101778 33.8535297,20.7800554 C34.562675,13.7050942 32.666301,7.55948788 28.8267161,2.11142792 L28.8267161,2.11142792 Z M11.3617565,17.0525352 C9.68649891,17.0525352 8.30614031,15.5688821 8.30614031,13.7467795 C8.30614031,11.9246769 9.65972671,10.4409122 11.3617565,10.4409122 C13.0770857,10.4409122 14.4440871,11.9375676 14.4173149,13.7466679 C14.4173149,15.5688821 13.0636707,17.0525352 11.3617565,17.0525352 Z M22.6592793,17.0525352 C20.9840796,17.0525352 19.603721,15.5688821 19.603721,13.7467795 C19.603721,11.9246769 20.9573074,10.4409122 22.6592793,10.4409122 C24.3747242,10.4409122 25.7416678,11.9375676 25.7148956,13.7466679 C25.7148956,15.5688821 24.3747242,17.0525352 22.6592793,17.0525352 Z" id="形状"></path>
                </g>
            </g>
        </g>
    </g>
</svg>