<?xml version="1.0" encoding="UTF-8"?>
<svg width="156px" height="60px" viewBox="0 0 156 60" version="1.1" xmlns="http://www.w3.org/2000/svg" xmlns:xlink="http://www.w3.org/1999/xlink">
    <title>编组 26</title>
    <defs>
        <linearGradient x1="50%" y1="100%" x2="50%" y2="-2.58126853e-13%" id="linearGradient-1">
            <stop stop-color="#084C8A" offset="0%"></stop>
            <stop stop-color="#1572CB" offset="100%"></stop>
        </linearGradient>
    </defs>
    <g id="Page-1" stroke="none" stroke-width="1" fill="none" fill-rule="evenodd">
        <g id="pop-up" transform="translate(-457.000000, -573.000000)" fill-rule="nonzero">
            <g id="编组-26" transform="translate(457.000000, 573.000000)">
                <g id="Launch-ABEx" fill="url(#linearGradient-1)">
                    <rect id="矩形" x="0" y="0" width="156" height="60" rx="10"></rect>
                </g>
                <g id="编组-24" transform="translate(65.000000, 18.000000)" fill="#FFFFFF" opacity="0.916015625">
                    <path d="M26.1496063,4.69724511 C25.7244095,5.11806702 25.2992126,5.328478 24.8740158,5.53888893 C24.6614173,5.53888893 24.6614173,5.74929991 24.6614173,5.95971084 C24.8740158,8.27423138 24.4488189,10.5887519 23.5984252,12.9032725 C22.1102362,16.9010806 18.9212598,20.057245 15.0944882,21.9509436 C11.9055118,23.8446422 8.07874014,24.4758751 4.67716531,23.6342313 C2.97637793,23.4238203 1.48818894,22.7925875 0.212598396,21.9509436 L0,21.7405327 C0,21.5301217 0.21259845,21.3197108 0.425196847,21.3197108 C1.48818899,21.3197108 2.55118108,21.1092998 3.61417322,20.6884779 C4.67716537,20.267656 5.74015746,19.6364231 6.59055115,19.0051902 L6.8031496,18.7947793 C6.8031496,18.5843683 6.8031496,18.3739574 6.59055115,18.3739574 C5.74015746,18.1635464 5.10236216,17.7427245 4.46456692,17.3219025 C3.61417322,16.9010806 2.97637793,16.0594368 2.55118108,15.217793 L2.55118108,15.0073821 C2.55118108,14.7969711 2.76377953,14.5865602 2.97637793,14.5865601 L3.61417322,14.5865601 C3.82677167,14.5865601 3.82677167,14.5865601 3.82677162,14.3761492 C4.03937007,14.1657382 3.82677162,13.9553273 3.61417322,13.7449163 C2.76377953,13.3240944 2.12598423,12.6928615 1.48818894,12.0616286 C0.637795243,11.2199848 0.212598396,10.16793 0.212598396,9.1158752 L0.212598396,8.90546427 C0.212598396,8.69505329 0.637795243,8.69505329 0.637795243,8.69505329 C0.850393693,8.69505329 1.06299209,8.90546427 1.27559054,8.90546427 L1.70078739,8.90546427 C1.91338584,8.90546427 1.91338584,8.90546427 2.12598423,8.69505329 C2.33858263,8.48464231 2.33858268,8.27423138 2.12598423,8.06382045 C1.27559054,7.22217663 0.637795243,6.17012183 0.425196847,4.90765609 C0.212598396,3.85560129 0.425196847,2.59313555 0.850393693,1.54108075 L0.850393693,1.33066982 C0.425196847,1.5410808 0.637795243,1.5410808 0.850393693,1.75149173 C2.33858268,3.22436845 3.82677167,4.48683418 5.74015746,5.53888893 C7.86614169,6.59094374 10.2047244,7.22217658 12.5433071,7.22217663 C12.7559055,7.22217663 12.9685039,7.01176565 12.9685039,6.80135472 C12.9685039,5.53888899 13.3937007,1.33066982 17.2204724,0.278615018 C19.1338583,-0.352617876 21.4724409,0.0682040353 22.9606299,1.75149173 C22.9606299,1.75149173 23.1732284,1.96190272 23.3858268,1.96190266 C23.8110236,1.96190266 24.2362205,1.75149168 24.8740158,1.75149173 C25.2992126,1.54108075 25.7244095,1.54108075 26.1496063,1.33066982 L26.5748032,1.33066982 C26.7874016,1.33066982 26.7874016,1.75149173 26.7874015,1.96190266 C26.5748031,2.38272457 26.1496063,2.80354648 25.7244095,3.22436839 L25.511811,3.43477938 C25.2992126,3.43477938 25.2992126,3.64519036 25.2992126,3.85560129 C25.2992127,4.06601222 25.5118111,4.2764232 25.7244095,4.2764232 C25.9370079,4.2764232 26.1496063,4.2764232 26.5748032,4.06601227 L27,4.06601227 C26.7874015,3.85560129 26.7874015,4.27642325 26.5748032,4.2764232 C26.3622047,4.48683418 26.3622047,4.69724511 26.1496063,4.69724511 Z" id="路径"></path>
                </g>
            </g>
        </g>
    </g>
</svg>