<svg width="15" height="16" viewBox="0 0 15 16" fill="none" xmlns="http://www.w3.org/2000/svg">
<path d="M1.45996 7.26172C1.45996 6.55078 1.59326 5.88428 1.85986 5.26221C2.1307 4.6359 2.50309 4.08577 2.97705 3.61182C3.45101 3.13363 3.99902 2.76123 4.62109 2.49463C5.2474 2.22803 5.91602 2.09473 6.62695 2.09473C7.34212 2.09473 8.01074 2.22803 8.63281 2.49463C9.25911 2.76123 9.80924 3.13363 10.2832 3.61182C10.7572 4.08577 11.1274 4.6359 11.394 5.26221C11.6649 5.88428 11.8003 6.55078 11.8003 7.26172C11.8003 7.82031 11.7135 8.3514 11.54 8.85498C11.3708 9.35856 11.1359 9.81771 10.8354 10.2324L13.73 13.1396C13.8188 13.2243 13.8844 13.3237 13.9268 13.438C13.9733 13.5522 13.9966 13.6729 13.9966 13.7998C13.9966 13.9775 13.9564 14.1383 13.876 14.2822C13.7956 14.4261 13.6855 14.5382 13.5459 14.6187C13.4062 14.7033 13.2454 14.7456 13.0635 14.7456C12.9365 14.7456 12.8138 14.7223 12.6953 14.6758C12.5811 14.6335 12.4774 14.5658 12.3843 14.4727L9.4707 11.5591C9.06445 11.8299 8.62012 12.0436 8.1377 12.2002C7.65951 12.3525 7.15592 12.4287 6.62695 12.4287C5.91602 12.4287 5.2474 12.2954 4.62109 12.0288C3.99902 11.7622 3.45101 11.3919 2.97705 10.918C2.50309 10.444 2.1307 9.896 1.85986 9.27393C1.59326 8.64762 1.45996 7.97689 1.45996 7.26172ZM2.81201 7.26172C2.81201 7.79069 2.90934 8.28581 3.104 8.74707C3.3029 9.20833 3.57796 9.61458 3.9292 9.96582C4.28044 10.3128 4.68669 10.5858 5.14795 10.7847C5.60921 10.9836 6.10221 11.083 6.62695 11.083C7.15592 11.083 7.65104 10.9836 8.1123 10.7847C8.57357 10.5858 8.9777 10.3128 9.32471 9.96582C9.67594 9.61458 9.95101 9.20833 10.1499 8.74707C10.3488 8.28581 10.4482 7.79069 10.4482 7.26172C10.4482 6.73698 10.3488 6.24398 10.1499 5.78271C9.95101 5.32145 9.67594 4.9152 9.32471 4.56396C8.9777 4.21273 8.57357 3.93978 8.1123 3.74512C7.65104 3.54622 7.15592 3.44678 6.62695 3.44678C6.10221 3.44678 5.60921 3.54622 5.14795 3.74512C4.68669 3.93978 4.28044 4.21273 3.9292 4.56396C3.57796 4.9152 3.3029 5.32145 3.104 5.78271C2.90934 6.24398 2.81201 6.73698 2.81201 7.26172Z" fill="#A1A7BB"/>
</svg>
