<svg width="24" height="24" viewBox="0 0 24 24" fill="none" xmlns="http://www.w3.org/2000/svg">
<circle cx="12" cy="12" r="12" fill="black"/>
<path d="M8.81754 11.481C8.28523 11.481 7.80614 11.3669 7.38029 11.1388C6.95444 10.9106 6.61794 10.5912 6.37079 10.1806C6.12364 9.76614 6.00007 9.28705 6.00007 8.74333C6.00007 8.1958 6.12364 7.71672 6.37079 7.30608C6.61794 6.89163 6.95444 6.57034 7.38029 6.3422C7.80614 6.11407 8.28523 6 8.81754 6H15.1882C15.7205 6 16.1977 6.11407 16.6198 6.3422C17.0456 6.57034 17.3821 6.89163 17.6293 7.30608C17.8764 7.71672 18 8.1958 18 8.74333C18 9.28705 17.8764 9.76614 17.6293 10.1806C17.3821 10.5912 17.0456 10.9106 16.6198 11.1388C16.1977 11.3669 15.7205 11.481 15.1882 11.481H8.81754ZM8.81754 10.3346H15.1882C15.4886 10.3346 15.7643 10.268 16.0152 10.135C16.27 9.99808 16.4734 9.80986 16.6255 9.57032C16.7776 9.33078 16.8536 9.05512 16.8536 8.74333C16.8536 8.42774 16.7776 8.15208 16.6255 7.91634C16.4734 7.6768 16.27 7.49049 16.0152 7.35741C15.7643 7.22053 15.4886 7.15208 15.1882 7.15208H8.81754C8.51336 7.15208 8.2339 7.22053 7.97915 7.35741C7.7282 7.49049 7.52668 7.6768 7.37459 7.91634C7.2225 8.15208 7.14645 8.42774 7.14645 8.74333C7.14645 9.05512 7.2225 9.33078 7.37459 9.57032C7.52668 9.80986 7.7282 9.99808 7.97915 10.135C8.2339 10.268 8.51336 10.3346 8.81754 10.3346ZM8.81754 9.96386C8.58941 9.96386 8.38219 9.90872 8.19587 9.79846C8.01337 9.68819 7.86698 9.5399 7.75671 9.35359C7.65025 9.16728 7.59702 8.96196 7.59702 8.73763C7.59702 8.51329 7.65025 8.30797 7.75671 8.12166C7.86698 7.93535 8.01337 7.78706 8.19587 7.6768C8.38219 7.56653 8.58941 7.5114 8.81754 7.5114C9.04568 7.5114 9.2529 7.56653 9.43921 7.6768C9.62552 7.78326 9.77381 7.92965 9.88408 8.11596C9.99434 8.29847 10.0476 8.50379 10.0438 8.73192C10.0438 8.96006 9.98864 9.16728 9.87837 9.35359C9.76811 9.5399 9.61982 9.69009 9.43351 9.80416C9.251 9.91443 9.04568 9.96766 8.81754 9.96386Z" fill="white"/>
<path d="M15.1825 17.7309C15.7148 17.7309 16.1939 17.6169 16.6197 17.3887C17.0456 17.1606 17.3821 16.8412 17.6292 16.4305C17.8764 16.0161 17.9999 15.537 17.9999 14.9933C17.9999 14.4458 17.8764 13.9667 17.6292 13.556C17.3821 13.1416 17.0456 12.8203 16.6197 12.5922C16.1939 12.364 15.7148 12.25 15.1825 12.25H8.81177C8.27946 12.25 7.80227 12.364 7.38022 12.5922C6.95437 12.8203 6.61787 13.1416 6.37072 13.556C6.12357 13.9667 6 14.4458 6 14.9933C6 15.537 6.12357 16.0161 6.37072 16.4305C6.61787 16.8412 6.95437 17.1606 7.38022 17.3887C7.80227 17.6169 8.27946 17.7309 8.81177 17.7309H15.1825ZM15.1825 16.5845H8.81177C8.51139 16.5845 8.23573 16.518 7.98478 16.3849C7.73003 16.248 7.52661 16.0598 7.37452 15.8203C7.22243 15.5807 7.14638 15.3051 7.14638 14.9933C7.14638 14.6777 7.22243 14.402 7.37452 14.1663C7.52661 13.9268 7.73003 13.7404 7.98478 13.6074C8.23573 13.4705 8.51139 13.402 8.81177 13.402H15.1825C15.4866 13.402 15.7661 13.4705 16.0209 13.6074C16.2718 13.7404 16.4733 13.9268 16.6254 14.1663C16.7775 14.402 16.8535 14.6777 16.8535 14.9933C16.8535 15.3051 16.7775 15.5807 16.6254 15.8203C16.4733 16.0598 16.2718 16.248 16.0209 16.3849C15.7661 16.518 15.4866 16.5845 15.1825 16.5845ZM15.1825 16.2138C15.4106 16.2138 15.6178 16.1587 15.8041 16.0484C15.9866 15.9382 16.133 15.7899 16.2433 15.6036C16.3498 15.4172 16.403 15.2119 16.403 14.9876C16.403 14.7633 16.3498 14.5579 16.2433 14.3716C16.133 14.1853 15.9866 14.037 15.8041 13.9268C15.6178 13.8165 15.4106 13.7614 15.1825 13.7614C14.9543 13.7614 14.7471 13.8165 14.5608 13.9268C14.3745 14.0332 14.2262 14.1796 14.1159 14.3659C14.0057 14.5484 13.9524 14.7538 13.9562 14.9819C13.9562 15.21 14.0114 15.4172 14.1216 15.6036C14.2319 15.7899 14.3802 15.9401 14.5665 16.0541C14.749 16.1644 14.9543 16.2176 15.1825 16.2138Z" fill="white"/>
</svg>
