<svg width="16" height="16" viewBox="0 0 16 16" fill="none" xmlns="http://www.w3.org/2000/svg">
<g id="icon">
<path id="Vector" d="M14.2133 6.36665L12.9533 5.94665L13.5466 4.75998C13.6067 4.63577 13.6269 4.49596 13.6042 4.35983C13.5815 4.2237 13.5171 4.09797 13.4199 3.99998L11.9999 2.57998C11.9014 2.48137 11.7745 2.41612 11.637 2.3934C11.4994 2.37068 11.3582 2.39163 11.2333 2.45332L10.0466 3.04665L9.62659 1.78665C9.58223 1.65531 9.49803 1.54107 9.38572 1.45981C9.2734 1.37856 9.13854 1.33434 8.99992 1.33332H6.99992C6.86016 1.33295 6.72382 1.37653 6.61017 1.45788C6.49652 1.53923 6.41131 1.65423 6.36659 1.78665L5.94659 3.04665L4.75992 2.45332C4.63571 2.39317 4.4959 2.37305 4.35977 2.39574C4.22364 2.41843 4.09791 2.4828 3.99992 2.57998L2.57992 3.99998C2.48131 4.09849 2.41606 4.22543 2.39334 4.36295C2.37062 4.50047 2.39157 4.64166 2.45325 4.76665L3.04659 5.95332L1.78659 6.37332C1.65525 6.41767 1.541 6.50187 1.45975 6.61419C1.3785 6.7265 1.33428 6.86136 1.33325 6.99998V8.99998C1.33289 9.13974 1.37647 9.27608 1.45782 9.38973C1.53916 9.50338 1.65417 9.58859 1.78659 9.63331L3.04659 10.0533L2.45325 11.24C2.39311 11.3642 2.37299 11.504 2.39568 11.6401C2.41837 11.7763 2.48274 11.902 2.57992 12L3.99992 13.42C4.09843 13.5186 4.22537 13.5838 4.36289 13.6066C4.50041 13.6293 4.64159 13.6083 4.76659 13.5466L5.95325 12.9533L6.37325 14.2133C6.41798 14.3457 6.50319 14.4607 6.61683 14.5421C6.73048 14.6234 6.86682 14.667 7.00659 14.6666H9.00659C9.14635 14.667 9.28269 14.6234 9.39634 14.5421C9.50999 14.4607 9.5952 14.3457 9.63992 14.2133L10.0599 12.9533L11.2466 13.5466C11.37 13.6053 11.5085 13.6246 11.6432 13.6019C11.7779 13.5793 11.9025 13.5157 11.9999 13.42L13.4199 12C13.5185 11.9015 13.5838 11.7745 13.6065 11.637C13.6292 11.4995 13.6083 11.3583 13.5466 11.2333L12.9533 10.0466L14.2133 9.62665C14.3446 9.58229 14.4588 9.4981 14.5401 9.38578C14.6213 9.27346 14.6656 9.1386 14.6666 8.99998V6.99998C14.6669 6.86022 14.6234 6.72388 14.542 6.61023C14.4607 6.49658 14.3457 6.41137 14.2133 6.36665ZM13.3333 8.51998L12.5333 8.78665C12.3493 8.84632 12.1805 8.9453 12.0386 9.07671C11.8967 9.20813 11.7851 9.36884 11.7116 9.5477C11.638 9.72656 11.6042 9.91928 11.6126 10.1125C11.6209 10.3057 11.6712 10.4948 11.7599 10.6666L12.1399 11.4266L11.4066 12.16L10.6666 11.76C10.4956 11.6748 10.3084 11.6274 10.1175 11.6208C9.92657 11.6143 9.7365 11.6489 9.56013 11.7222C9.38376 11.7956 9.22521 11.9059 9.0952 12.0459C8.96519 12.1858 8.86677 12.352 8.80659 12.5333L8.53992 13.3333H7.47992L7.21325 12.5333C7.15358 12.3494 7.0546 12.1806 6.92319 12.0387C6.79177 11.8968 6.63106 11.7852 6.4522 11.7116C6.27334 11.638 6.08062 11.6043 5.8874 11.6126C5.69419 11.621 5.5051 11.6713 5.33325 11.76L4.57325 12.14L3.83992 11.4066L4.23992 10.6666C4.32865 10.4948 4.37893 10.3057 4.38728 10.1125C4.39563 9.91928 4.36185 9.72656 4.28828 9.5477C4.21471 9.36884 4.10311 9.20813 3.96122 9.07671C3.81933 8.9453 3.65055 8.84632 3.46659 8.78665L2.66659 8.51998V7.47998L3.46659 7.21331C3.65055 7.15364 3.81933 7.05466 3.96122 6.92325C4.10311 6.79183 4.21471 6.63112 4.28828 6.45226C4.36185 6.2734 4.39563 6.08068 4.38728 5.88746C4.37893 5.69425 4.32865 5.50516 4.23992 5.33331L3.85992 4.59331L4.59325 3.85998L5.33325 4.23998C5.5051 4.32871 5.69419 4.37899 5.8874 4.38735C6.08062 4.3957 6.27334 4.36191 6.4522 4.28834C6.63106 4.21477 6.79177 4.10317 6.92319 3.96128C7.0546 3.81939 7.15358 3.65061 7.21325 3.46665L7.47992 2.66665H8.51992L8.78659 3.46665C8.84626 3.65061 8.94524 3.81939 9.07665 3.96128C9.20807 4.10317 9.36878 4.21477 9.54764 4.28834C9.7265 4.36191 9.91922 4.3957 10.1124 4.38735C10.3057 4.37899 10.4947 4.32871 10.6666 4.23998L11.4266 3.85998L12.1599 4.59331L11.7599 5.33331C11.6747 5.50428 11.6273 5.69155 11.6208 5.88244C11.6143 6.07334 11.6489 6.2634 11.7222 6.43977C11.7955 6.61614 11.9059 6.77469 12.0458 6.9047C12.1857 7.03471 12.352 7.13313 12.5333 7.19331L13.3333 7.45998V8.51998ZM7.99992 5.33331C7.4725 5.33331 6.95693 5.48971 6.5184 5.78273C6.07987 6.07575 5.73808 6.49222 5.53624 6.97949C5.33441 7.46676 5.2816 8.00294 5.38449 8.52022C5.48739 9.0375 5.74136 9.51266 6.1143 9.8856C6.48724 10.2585 6.9624 10.5125 7.47968 10.6154C7.99696 10.7183 8.53314 10.6655 9.02041 10.4637C9.50768 10.2618 9.92416 9.92003 10.2172 9.4815C10.5102 9.04297 10.6666 8.5274 10.6666 7.99998C10.6666 7.29274 10.3856 6.61446 9.88554 6.11436C9.38544 5.61427 8.70716 5.33331 7.99992 5.33331ZM7.99992 9.33331C7.73621 9.33331 7.47843 9.25512 7.25916 9.10861C7.03989 8.9621 6.869 8.75386 6.76808 8.51023C6.66716 8.26659 6.64076 7.9985 6.69221 7.73986C6.74365 7.48122 6.87064 7.24364 7.05711 7.05717C7.24358 6.8707 7.48116 6.74371 7.7398 6.69227C7.99844 6.64082 8.26653 6.66722 8.51016 6.76814C8.7538 6.86906 8.96204 7.03996 9.10855 7.25922C9.25505 7.47849 9.33325 7.73627 9.33325 7.99998C9.33325 8.3536 9.19278 8.69274 8.94273 8.94279C8.69268 9.19284 8.35354 9.33331 7.99992 9.33331Z" fill="black"/>
</g>
</svg>
