<svg width="32" height="32" viewBox="0 0 32 32" fill="none" xmlns="http://www.w3.org/2000/svg">
<g clip-path="url(#clip0_415_20387)">
<circle cx="16" cy="16" r="16" fill="black"/>
<rect width="21.3333" height="21.3333" transform="translate(5.33301 5.3335)" fill="black"/>
<path d="M24.2837 13.8224L22.6037 13.2624L23.3948 11.6802C23.475 11.5146 23.5018 11.3282 23.4716 11.1467C23.4413 10.9652 23.3555 10.7975 23.2259 10.6669L21.3326 8.77355C21.2012 8.64207 21.032 8.55507 20.8486 8.52478C20.6653 8.49448 20.477 8.52242 20.3104 8.60466L18.7281 9.39578L18.1681 7.71578C18.109 7.54066 17.9967 7.38833 17.847 7.28C17.6972 7.17166 17.5174 7.1127 17.3326 7.11133H14.6659C14.4796 7.11085 14.2978 7.16895 14.1462 7.27741C13.9947 7.38588 13.8811 7.53922 13.8215 7.71578L13.2615 9.39578L11.6792 8.60466C11.5136 8.52447 11.3272 8.49765 11.1457 8.5279C10.9642 8.55815 10.7966 8.64398 10.6659 8.77355L8.77258 10.6669C8.6411 10.7982 8.55409 10.9675 8.5238 11.1508C8.49351 11.3342 8.52144 11.5225 8.60369 11.6891L9.3948 13.2713L7.7148 13.8313C7.53968 13.8905 7.38736 14.0027 7.27902 14.1525C7.17068 14.3023 7.11173 14.4821 7.11035 14.6669V17.3336C7.10987 17.5199 7.16797 17.7017 7.27644 17.8532C7.3849 18.0048 7.53825 18.1184 7.7148 18.178L9.3948 18.738L8.60369 20.3202C8.52349 20.4858 8.49667 20.6723 8.52692 20.8538C8.55717 21.0353 8.643 21.2029 8.77258 21.3336L10.6659 23.2269C10.7973 23.3584 10.9665 23.4454 11.1499 23.4757C11.3332 23.506 11.5215 23.478 11.6881 23.3958L13.2704 22.6047L13.8304 24.2847C13.89 24.4612 14.0036 24.6146 14.1551 24.723C14.3067 24.8315 14.4884 24.8896 14.6748 24.8891H17.3415C17.5278 24.8896 17.7096 24.8315 17.8611 24.723C18.0127 24.6146 18.1263 24.4612 18.1859 24.2847L18.7459 22.6047L20.3281 23.3958C20.4927 23.4739 20.6773 23.4997 20.8569 23.4695C21.0366 23.4393 21.2026 23.3546 21.3326 23.2269L23.2259 21.3336C23.3574 21.2022 23.4444 21.033 23.4747 20.8496C23.505 20.6662 23.477 20.478 23.3948 20.3113L22.6037 18.7291L24.2837 18.1691C24.4588 18.11 24.6111 17.9977 24.7195 17.8479C24.8278 17.6982 24.8868 17.5184 24.8881 17.3336V14.6669C24.8886 14.4805 24.8305 14.2987 24.7221 14.1472C24.6136 13.9957 24.4602 13.8821 24.2837 13.8224ZM23.1104 16.6936L22.0437 17.0491C21.7984 17.1287 21.5734 17.2606 21.3842 17.4359C21.195 17.6111 21.0462 17.8254 20.9481 18.0638C20.85 18.3023 20.805 18.5593 20.8161 18.8169C20.8272 19.0745 20.8943 19.3267 21.0126 19.5558L21.5192 20.5691L20.5415 21.5469L19.5548 21.0136C19.3268 20.9 19.0772 20.8367 18.8226 20.828C18.5681 20.8194 18.3147 20.8655 18.0795 20.9632C17.8444 21.061 17.633 21.2082 17.4596 21.3947C17.2863 21.5813 17.155 21.803 17.0748 22.0447L16.7192 23.1113H15.3059L14.9504 22.0447C14.8708 21.7994 14.7388 21.5743 14.5636 21.3852C14.3884 21.196 14.1741 21.0472 13.9356 20.9491C13.6971 20.851 13.4402 20.8059 13.1826 20.8171C12.9249 20.8282 12.6728 20.8952 12.4437 21.0136L11.4304 21.5202L10.4526 20.5424L10.9859 19.5558C11.1042 19.3267 11.1713 19.0745 11.1824 18.8169C11.1935 18.5593 11.1485 18.3023 11.0504 18.0638C10.9523 17.8254 10.8035 17.6111 10.6143 17.4359C10.4251 17.2606 10.2001 17.1287 9.9548 17.0491L8.88813 16.6936V15.3069L9.9548 14.9513C10.2001 14.8718 10.4251 14.7398 10.6143 14.5646C10.8035 14.3894 10.9523 14.1751 11.0504 13.9366C11.1485 13.6981 11.1935 13.4412 11.1824 13.1835C11.1713 12.9259 11.1042 12.6738 10.9859 12.4447L10.4792 11.458L11.457 10.4802L12.4437 10.9869C12.6728 11.1052 12.9249 11.1722 13.1826 11.1834C13.4402 11.1945 13.6971 11.1495 13.9356 11.0514C14.1741 10.9533 14.3884 10.8045 14.5636 10.6153C14.7388 10.4261 14.8708 10.2011 14.9504 9.95578L15.3059 8.88911H16.6926L17.0481 9.95578C17.1277 10.2011 17.2597 10.4261 17.4349 10.6153C17.6101 10.8045 17.8244 10.9533 18.0629 11.0514C18.3013 11.1495 18.5583 11.1945 18.8159 11.1834C19.0736 11.1722 19.3257 11.1052 19.5548 10.9869L20.5681 10.4802L21.5459 11.458L21.0126 12.4447C20.899 12.6726 20.8357 12.9223 20.8271 13.1768C20.8184 13.4314 20.8645 13.6848 20.9623 13.9199C21.06 14.1551 21.2072 14.3665 21.3938 14.5398C21.5803 14.7132 21.802 14.8444 22.0437 14.9247L23.1104 15.2802V16.6936ZM15.9992 12.4447C15.296 12.4447 14.6086 12.6532 14.0239 13.0439C13.4392 13.4346 12.9834 13.9899 12.7143 14.6396C12.4452 15.2893 12.3748 16.0042 12.512 16.6939C12.6492 17.3836 12.9878 18.0171 13.4851 18.5144C13.9823 19.0116 14.6159 19.3503 15.3056 19.4875C15.9953 19.6246 16.7102 19.5542 17.3599 19.2851C18.0096 19.016 18.5649 18.5603 18.9556 17.9756C19.3463 17.3909 19.5548 16.7034 19.5548 16.0002C19.5548 15.0572 19.1802 14.1529 18.5134 13.4861C17.8466 12.8193 16.9422 12.4447 15.9992 12.4447ZM15.9992 17.778C15.6476 17.778 15.3039 17.6737 15.0116 17.4784C14.7192 17.283 14.4913 17.0054 14.3568 16.6805C14.2222 16.3557 14.187 15.9982 14.2556 15.6534C14.3242 15.3085 14.4935 14.9918 14.7422 14.7431C14.9908 14.4945 15.3076 14.3252 15.6524 14.2566C15.9973 14.188 16.3547 14.2232 16.6796 14.3578C17.0044 14.4923 17.2821 14.7202 17.4774 15.0125C17.6728 15.3049 17.777 15.6486 17.777 16.0002C17.777 16.4717 17.5897 16.9239 17.2563 17.2573C16.9229 17.5907 16.4707 17.778 15.9992 17.778Z" fill="white"/>
</g>
<defs>
<clipPath id="clip0_415_20387">
<rect width="32" height="32" fill="white"/>
</clipPath>
</defs>
</svg>
