<?xml version="1.0" encoding="UTF-8"?>
<svg width="105px" height="60px" viewBox="0 0 105 60" version="1.1" xmlns="http://www.w3.org/2000/svg" xmlns:xlink="http://www.w3.org/1999/xlink">
    <title>sui-logo.8d3c44e</title>
    <g id="Page-1" stroke="none" stroke-width="1" fill="none" fill-rule="evenodd">
        <g id="desktop" transform="translate(-947.000000, -4910.000000)" fill="#1D2947">
            <g id="编组-29" transform="translate(320.000000, 4471.000000)">
                <g id="sui-logo.8d3c44e" transform="translate(627.000000, 439.000000)">
                    <path d="M58.2623476,32.5283105 C58.2623476,33.387648 58.6949034,34.0838136 59.560015,34.6171485 C60.4249549,35.1209862 61.4690965,35.5356507 62.6919248,35.8616533 C63.9149248,36.1579883 65.1379248,36.5134881 66.3609248,36.928323 C67.5839248,37.3134904 68.6278947,37.9949927 69.4930063,38.9728301 C70.3579462,39.9208294 70.790502,41.1505004 70.790502,42.6616727 C70.790502,44.6765122 70.0000578,46.2913505 68.4191694,47.5060173 C66.8679763,48.7208545 64.8694656,49.3283583 62.4234656,49.3283583 C60.2460965,49.3283583 58.3818154,48.8541882 56.8306223,47.9060184 C55.2796009,46.9580191 54.175897,45.6986805 53.5196825,44.1283435 L56.8754228,42.2171701 C57.2333112,43.2838398 57.9044592,44.1283435 58.8888669,44.7505107 C59.873103,45.3728484 61.0514742,45.6838467 62.4234656,45.6838467 C63.7061995,45.6838467 64.7651029,45.4468469 65.6003475,44.9728472 C66.4354205,44.4690095 66.8530428,43.6986748 66.8530428,42.6616727 C66.8530428,41.8023352 66.4206587,41.1208328 65.5555471,40.6171656 C64.6904356,40.0838307 63.6464656,39.6689958 62.4234656,39.3728313 C61.2006373,39.0468286 59.9776373,38.6764951 58.7546373,38.2616602 C57.5316373,37.8468252 56.4876674,37.1653228 55.6225558,36.217153 C54.7576159,35.2689833 54.3250601,34.0543165 54.3250601,32.5728119 C54.3250601,30.6468047 55.0707039,29.0616339 56.5621631,27.8171291 C58.0834893,26.5727948 59.9776373,25.9504571 62.2446072,25.9504571 C64.0640879,25.9504571 65.6748433,26.3652921 67.0768733,27.194962 C68.5085986,27.9949642 69.5824355,29.1209691 70.298384,30.5728062 L67.0320729,32.3949768 C66.2266952,30.4986372 64.6308733,29.5504674 62.2446072,29.5504674 C61.1409034,29.5504674 60.2012961,29.8171348 59.4257854,30.3504697 C58.6502747,30.8543074 58.2623476,31.5801407 58.2623476,32.5283105 Z" id="路径" fill-rule="nonzero"></path>
                    <path d="M90.6173486,26.5282934 L94.5098357,26.5282934 L94.5098357,48.7505221 L90.6173486,48.7505221 L90.6173486,45.550513 C89.0362885,48.0690197 86.6201555,49.3283583 83.3689495,49.3283583 C80.7439195,49.3283583 78.6410462,48.5135223 77.0601578,46.8838501 C75.4792694,45.2246808 74.6886535,42.9875048 74.6886535,40.1728335 L74.6886535,26.5282934 L78.5813123,26.5282934 L78.5813123,39.950497 C78.5813123,41.7580043 79.0736019,43.1653399 80.057838,44.1728449 C81.0422457,45.1505118 82.3994753,45.6395158 84.1295268,45.6395158 C86.0683036,45.6395158 87.6344302,45.0468457 88.8275632,43.8616761 C90.0206962,42.6468389 90.6173486,40.7950007 90.6173486,38.3061616 L90.6173486,26.5282934 Z" id="路径" fill-rule="nonzero"></path>
                    <path d="M102.405009,22.4839511 C101.659193,22.4839511 101.032846,22.231947 100.525794,21.7282797 C100.018743,21.2246125 99.7652168,20.6172791 99.7652168,19.9061091 C99.7652168,19.1949392 100.018743,18.5876058 100.525794,18.0839386 C101.032846,17.5506037 101.659193,17.2839363 102.405009,17.2839363 C103.120785,17.2839363 103.732371,17.5506037 104.239423,18.0839386 C104.746474,18.5876058 105,19.1949392 105,19.9061091 C105,20.6172791 104.746474,21.2246125 104.239423,21.7282797 C103.732371,22.231947 103.120785,22.4839511 102.405009,22.4839511 Z M100.436193,48.7505221 L100.436193,26.5282934 L104.328852,26.5282934 L104.328852,48.7505221 L100.436193,48.7505221 Z" id="形状" fill-rule="nonzero"></path>
                    <path d="M2.84378135,49.581215 C6.63549325,56.1055303 13.4271168,60 21.0105406,60 C28.5939988,60 35.3842663,56.1055303 39.1773686,49.581215 C42.9690976,43.0580933 42.9690976,35.2691538 39.1773686,28.7448385 L23.1992386,1.25521031 C22.226503,-0.41840571 19.7945783,-0.4184023 18.8218427,1.25521372 L2.84378135,28.7448385 C-0.947927117,35.2677897 -0.947927117,43.0568997 2.84378135,49.581215 Z M16.5095231,14.3332203 L19.9161058,8.47199302 C20.4025594,7.63516199 21.6185218,7.63516199 22.1049754,8.47199302 L35.2105574,31.0205483 C37.6184513,35.1631006 38.0704034,39.9574877 36.5664138,44.3447124 C36.4098698,43.6289389 36.1910172,42.8966265 35.8959523,42.1568119 C34.0857407,37.6188621 29.9924241,34.1170618 23.7277462,31.7479161 C19.4205548,30.1250641 16.6712852,27.738186 15.5541241,24.6532667 C14.1152067,20.6771258 15.618132,16.3412396 16.5095231,14.3332203 Z M10.7005564,24.3276051 L6.8104552,31.0205483 C3.8463152,36.1203071 3.8463152,42.2081335 6.8104552,47.3078922 C9.77461236,52.407651 15.0822435,55.4509674 21.0105406,55.4509674 C24.9479998,55.4509674 28.6127085,54.1072296 31.4983019,51.7104623 C31.8747284,50.7692832 33.0400543,47.3242606 31.6002615,43.7735258 C30.2704957,40.4947441 27.0702695,37.8773453 22.0879822,35.9920885 C16.4560544,33.8700023 12.7971302,30.5571199 11.2149373,26.1482412 C10.9970116,25.5412488 10.8276969,24.9328924 10.7005564,24.3276051 Z" id="形状"></path>
                </g>
            </g>
        </g>
    </g>
</svg>