<?xml version="1.0" encoding="UTF-8"?>
<svg width="30px" height="30px" viewBox="0 0 30 30" version="1.1" xmlns="http://www.w3.org/2000/svg" xmlns:xlink="http://www.w3.org/1999/xlink">
    <title>形状</title>
    <g id="Page-1" stroke="none" stroke-width="1" fill="none" fill-rule="evenodd">
        <g id="desktop" transform="translate(-1390.000000, -5479.000000)" fill="#5F6368" fill-rule="nonzero">
            <path d="M1409.04799,5500.02344 L1411.50893,5488.42188 C1411.60937,5487.9308 1411.55078,5487.57924 1411.33315,5487.36719 C1411.11551,5487.15513 1410.82812,5487.11607 1410.47098,5487.25 L1396.0067,5492.82478 C1395.68304,5492.94754 1395.46261,5493.08705 1395.34542,5493.2433 C1395.22824,5493.39955 1395.21429,5493.54743 1395.30357,5493.68694 C1395.39286,5493.82645 1395.57143,5493.93527 1395.83929,5494.01339 L1399.53906,5495.16853 L1408.12723,5489.76116 C1408.36161,5489.60491 1408.54018,5489.57143 1408.66295,5489.66071 C1408.74107,5489.71652 1408.71875,5489.80022 1408.59598,5489.91183 L1401.64844,5496.18973 L1401.38058,5500.0067 C1401.63728,5500.0067 1401.88839,5499.88393 1402.13393,5499.63839 L1403.94196,5497.89732 L1407.69196,5500.6596 C1408.40625,5501.06138 1408.85826,5500.84933 1409.04799,5500.02344 L1409.04799,5500.02344 Z M1420,5494 C1420,5496.03125 1419.60379,5497.97321 1418.81138,5499.82589 C1418.01897,5501.67857 1416.95312,5503.27455 1415.61384,5504.61384 C1414.27455,5505.95312 1412.67857,5507.01897 1410.82589,5507.81138 C1408.97321,5508.60379 1407.03125,5509 1405,5509 C1402.96875,5509 1401.02679,5508.60379 1399.17411,5507.81138 C1397.32143,5507.01897 1395.72545,5505.95312 1394.38616,5504.61384 C1393.04688,5503.27455 1391.98103,5501.67857 1391.18862,5499.82589 C1390.39621,5497.97321 1390,5496.03125 1390,5494 C1390,5491.96875 1390.39621,5490.02679 1391.18862,5488.17411 C1391.98103,5486.32143 1393.04688,5484.72545 1394.38616,5483.38616 C1395.72545,5482.04688 1397.32143,5480.98103 1399.17411,5480.18862 C1401.02679,5479.39621 1402.96875,5479 1405,5479 C1407.03125,5479 1408.97321,5479.39621 1410.82589,5480.18862 C1412.67857,5480.98103 1414.27455,5482.04688 1415.61384,5483.38616 C1416.95312,5484.72545 1418.01897,5486.32143 1418.81138,5488.17411 C1419.60379,5490.02679 1420,5491.96875 1420,5494 Z" id="形状"></path>
        </g>
    </g>
</svg>