<svg width="10" height="11" viewBox="0 0 10 11" fill="none" xmlns="http://www.w3.org/2000/svg">
<g id="Group">
<path id="Vector" d="M5 10.687C5.68302 10.687 6.32599 10.5564 6.92891 10.295C7.53186 10.0337 8.06372 9.67281 8.52449 9.21223C8.98529 8.75169 9.3464 8.22009 9.60782 7.61743C9.86927 7.0148 10 6.37214 10 5.68946C10 5.00678 9.86927 4.36412 9.60782 3.76147C9.3464 3.15883 8.98529 2.62722 8.52449 2.16666C8.06372 1.7061 7.53104 1.34517 6.92645 1.08386C6.32189 0.82255 5.6781 0.691895 4.99509 0.691895C4.31209 0.691895 3.66911 0.82255 3.06617 1.08386C2.46323 1.34517 1.93219 1.7061 1.47304 2.16666C1.01389 2.62722 0.653594 3.15883 0.392156 3.76147C0.130719 4.36412 0 5.00678 0 5.68946C0 6.37214 0.130719 7.0148 0.392156 7.61743C0.653594 8.22009 1.0147 8.75169 1.47549 9.21223C1.93627 9.67281 2.46813 10.0337 3.07107 10.295C3.67401 10.5564 4.31699 10.687 5 10.687ZM5 9.85408C4.42156 9.85408 3.88071 9.74629 3.37745 9.53072C2.87418 9.31515 2.43219 9.0171 2.05147 8.63656C1.67075 8.25603 1.37336 7.81425 1.15931 7.31123C0.94526 6.80821 0.838233 6.26762 0.838233 5.68946C0.838233 5.11131 0.94526 4.57072 1.15931 4.0677C1.37336 3.56468 1.66993 3.12208 2.04902 2.73991C2.4281 2.35775 2.86928 2.05969 3.37255 1.84574C3.87581 1.6318 4.41666 1.52482 4.99509 1.52482C5.57353 1.52482 6.11438 1.6318 6.61764 1.84574C7.12091 2.05969 7.56372 2.35775 7.94608 2.73991C8.32844 3.12208 8.62746 3.56468 8.84313 4.0677C9.05881 4.57072 9.16665 5.11131 9.16665 5.68946C9.16665 6.26762 9.05963 6.80821 8.84559 7.31123C8.63152 7.81425 8.33413 8.25603 7.95341 8.63656C7.57269 9.0171 7.12988 9.31515 6.62497 9.53072C6.1201 9.74629 5.57844 9.85408 5 9.85408ZM4.90195 6.70365C5.02288 6.70365 5.11847 6.66935 5.18871 6.60075C5.25899 6.53219 5.29412 6.45054 5.29412 6.35581C5.29412 6.34601 5.29412 6.33539 5.29412 6.32396C5.29412 6.31252 5.29412 6.30354 5.29412 6.29701C5.29412 6.15981 5.33497 6.04141 5.41665 5.9418C5.49837 5.84216 5.62582 5.73518 5.799 5.62086C6.03431 5.46408 6.22876 5.30076 6.38232 5.13091C6.53592 4.96105 6.61272 4.72914 6.61272 4.43517C6.61272 4.16406 6.54002 3.93541 6.39462 3.74923C6.24919 3.56304 6.05883 3.42177 5.82354 3.32541C5.58822 3.22905 5.33169 3.18088 5.05394 3.18088C4.63235 3.18088 4.28839 3.26662 4.02206 3.4381C3.75572 3.60959 3.58823 3.80802 3.5196 4.0334C3.50653 4.0726 3.49673 4.11179 3.49019 4.15099C3.48365 4.19019 3.48039 4.23102 3.48039 4.27348C3.48039 4.38453 3.51633 4.46864 3.58823 4.52581C3.66013 4.58297 3.73692 4.61155 3.81862 4.61155C3.90032 4.61155 3.96977 4.59358 4.02696 4.55766C4.08415 4.52173 4.13398 4.47436 4.17646 4.41557L4.2647 4.29798C4.32353 4.20325 4.39052 4.12241 4.46568 4.05545C4.54084 3.98849 4.62499 3.93704 4.71813 3.90111C4.81127 3.86518 4.91176 3.84722 5.0196 3.84722C5.24508 3.84722 5.42482 3.90519 5.55881 4.02115C5.6928 4.13711 5.75979 4.28818 5.75979 4.47436C5.75979 4.64095 5.7075 4.77732 5.60293 4.88347C5.49835 4.98963 5.33823 5.11784 5.12255 5.26809C4.94607 5.38895 4.79983 5.52287 4.68382 5.66986C4.56781 5.81683 4.5098 6.01119 4.5098 6.25291C4.5098 6.26271 4.5098 6.27333 4.5098 6.28477C4.5098 6.29618 4.5098 6.30678 4.5098 6.31658C4.5098 6.57463 4.64052 6.70365 4.90195 6.70365ZM4.88725 8.16375C5.03103 8.16375 5.15522 8.11475 5.25979 8.01675C5.36437 7.91874 5.41665 7.7979 5.41665 7.65421C5.41665 7.51048 5.36437 7.38962 5.25979 7.29162C5.15522 7.19361 5.03103 7.14461 4.88725 7.14461C4.74346 7.14461 4.62009 7.19443 4.51715 7.29407C4.41421 7.39368 4.36274 7.51372 4.36274 7.65421C4.36274 7.79465 4.41503 7.91468 4.5196 8.01429C4.62418 8.11393 4.74673 8.16375 4.88725 8.16375Z" fill="#007AF0"/>
</g>
</svg>
