<?xml version="1.0" encoding="UTF-8"?>
<svg width="30px" height="30px" viewBox="0 0 30 30" version="1.1" xmlns="http://www.w3.org/2000/svg" xmlns:xlink="http://www.w3.org/1999/xlink">
    <title>形状</title>
    <g id="Page-1" stroke="none" stroke-width="1" fill="none" fill-rule="evenodd">
        <g id="Button" transform="translate(-189.000000, -775.000000)" fill="#1C9BE9" fill-rule="nonzero">
            <path d="M204,775 C195.692308,775 189,781.692308 189,790 C189,798.307692 195.692308,805 204,805 C212.307692,805 219,798.307692 219,790 C219,781.692308 212.307692,775 204,775 Z M213.325606,785.706233 C213.190342,785.841497 213.190342,785.976762 213.055077,785.976762 C212.784549,786.24729 212.514021,786.382554 212.243492,786.517818 C212.108228,786.517818 212.108228,786.653082 212.108228,786.788347 C212.243492,788.276253 211.972964,789.764159 211.431907,791.252065 C210.485058,793.822084 208.456095,795.851047 206.02134,797.068425 C203.992377,798.285803 201.557622,798.691595 199.393395,798.150538 C198.311281,798.015274 197.364432,797.609482 196.552847,797.068425 L196.417582,796.933161 C196.417582,796.797896 196.552847,796.662632 196.688111,796.662632 C197.364432,796.662632 198.040753,796.527368 198.717074,796.25684 C199.393395,795.986311 200.069715,795.580519 200.610772,795.174726 L200.746036,795.039462 C200.746036,794.904198 200.746036,794.768934 200.610772,794.768934 C200.069715,794.633669 199.663923,794.363141 199.25813,794.092613 C198.717074,793.822084 198.311281,793.281028 198.040753,792.739971 L198.040753,792.604707 C198.040753,792.469442 198.176017,792.334178 198.311281,792.334178 L198.717074,792.334178 C198.852338,792.334178 198.852338,792.334178 198.852338,792.198914 C198.987602,792.06365 198.852338,791.928386 198.717074,791.793122 C198.176017,791.522593 197.770224,791.116801 197.364432,790.711008 C196.823375,790.169951 196.552847,789.49363 196.552847,788.817309 L196.552847,788.682045 C196.552847,788.546781 196.823375,788.546781 196.823375,788.546781 C196.958639,788.546781 197.093903,788.682045 197.229168,788.682045 L197.499696,788.682045 C197.63496,788.682045 197.63496,788.682045 197.770224,788.546781 C197.905488,788.411517 197.905488,788.276253 197.770224,788.140989 C197.229168,787.599932 196.823375,786.923611 196.688111,786.112026 C196.552847,785.435705 196.688111,784.62412 196.958639,783.947799 L196.958639,783.812535 C196.688111,783.947799 196.823375,783.947799 196.958639,784.083063 C197.905488,785.029912 198.852338,785.841497 200.069715,786.517818 C201.422357,787.194139 202.910263,787.599932 204.398169,787.599932 C204.533434,787.599932 204.668698,787.464668 204.668698,787.329403 C204.668698,786.517818 204.939226,783.812535 207.373982,783.136214 C208.591359,782.730421 210.079265,783.000949 211.026115,784.083063 C211.026115,784.083063 211.161379,784.218327 211.296643,784.218327 C211.567171,784.218327 211.8377,784.083063 212.243492,784.083063 C212.514021,783.947799 212.784549,783.947799 213.055077,783.812535 L213.325606,783.812535 C213.46087,783.812535 213.46087,784.083063 213.46087,784.218327 C213.325606,784.488855 213.055077,784.759384 212.784549,785.029912 L212.649285,785.165176 C212.514021,785.165176 212.514021,785.300441 212.514021,785.435705 C212.514021,785.570969 212.649285,785.706233 212.784549,785.706233 C212.919813,785.706233 213.055077,785.706233 213.325606,785.570969 L213.596134,785.570969 C213.46087,785.435705 213.46087,785.706233 213.325606,785.706233 L213.325606,785.706233 Z" id="形状"></path>
        </g>
    </g>
</svg>