<?xml version="1.0" encoding="UTF-8"?>
<svg width="30px" height="30px" viewBox="0 0 30 30" version="1.1" xmlns="http://www.w3.org/2000/svg" xmlns:xlink="http://www.w3.org/1999/xlink">
    <title>形状</title>
    <g id="Page-1" stroke="none" stroke-width="1" fill="none" fill-rule="evenodd">
        <g id="desktop" transform="translate(-1450.000000, -5479.000000)" fill="#5F6368" fill-rule="nonzero">
            <path d="M1465,5479 C1456.69231,5479 1450,5485.69231 1450,5494 C1450,5502.30769 1456.69231,5509 1465,5509 C1473.30769,5509 1480,5502.30769 1480,5494 C1480,5485.69231 1473.30769,5479 1465,5479 Z M1474.32561,5489.70623 C1474.19034,5489.8415 1474.19034,5489.97676 1474.05508,5489.97676 C1473.78455,5490.24729 1473.51402,5490.38255 1473.24349,5490.51782 C1473.10823,5490.51782 1473.10823,5490.65308 1473.10823,5490.78835 C1473.24349,5492.27625 1472.97296,5493.76416 1472.43191,5495.25206 C1471.48506,5497.82208 1469.4561,5499.85105 1467.02134,5501.06842 C1464.99238,5502.2858 1462.55762,5502.6916 1460.39339,5502.15054 C1459.31128,5502.01527 1458.36443,5501.60948 1457.55285,5501.06842 L1457.41758,5500.93316 C1457.41758,5500.7979 1457.55285,5500.66263 1457.68811,5500.66263 C1458.36443,5500.66263 1459.04075,5500.52737 1459.71707,5500.25684 C1460.39339,5499.98631 1461.06972,5499.58052 1461.61077,5499.17473 L1461.74604,5499.03946 C1461.74604,5498.9042 1461.74604,5498.76893 1461.61077,5498.76893 C1461.06972,5498.63367 1460.66392,5498.36314 1460.25813,5498.09261 C1459.71707,5497.82208 1459.31128,5497.28103 1459.04075,5496.73997 L1459.04075,5496.60471 C1459.04075,5496.46944 1459.17602,5496.33418 1459.31128,5496.33418 L1459.71707,5496.33418 C1459.85234,5496.33418 1459.85234,5496.33418 1459.85234,5496.19891 C1459.9876,5496.06365 1459.85234,5495.92839 1459.71707,5495.79312 C1459.17602,5495.52259 1458.77022,5495.1168 1458.36443,5494.71101 C1457.82337,5494.16995 1457.55285,5493.49363 1457.55285,5492.81731 L1457.55285,5492.68205 C1457.55285,5492.54678 1457.82337,5492.54678 1457.82337,5492.54678 C1457.95864,5492.54678 1458.0939,5492.68205 1458.22917,5492.68205 L1458.4997,5492.68205 C1458.63496,5492.68205 1458.63496,5492.68205 1458.77022,5492.54678 C1458.90549,5492.41152 1458.90549,5492.27625 1458.77022,5492.14099 C1458.22917,5491.59993 1457.82337,5490.92361 1457.68811,5490.11203 C1457.55285,5489.4357 1457.68811,5488.62412 1457.95864,5487.9478 L1457.95864,5487.81253 C1457.68811,5487.9478 1457.82337,5487.9478 1457.95864,5488.08306 C1458.90549,5489.02991 1459.85234,5489.8415 1461.06972,5490.51782 C1462.42236,5491.19414 1463.91026,5491.59993 1465.39817,5491.59993 C1465.53343,5491.59993 1465.6687,5491.46467 1465.6687,5491.3294 C1465.6687,5490.51782 1465.93923,5487.81253 1468.37398,5487.13621 C1469.59136,5486.73042 1471.07927,5487.00095 1472.02611,5488.08306 C1472.02611,5488.08306 1472.16138,5488.21833 1472.29664,5488.21833 C1472.56717,5488.21833 1472.8377,5488.08306 1473.24349,5488.08306 C1473.51402,5487.9478 1473.78455,5487.9478 1474.05508,5487.81253 L1474.32561,5487.81253 C1474.46087,5487.81253 1474.46087,5488.08306 1474.46087,5488.21833 C1474.32561,5488.48886 1474.05508,5488.75938 1473.78455,5489.02991 L1473.64928,5489.16518 C1473.51402,5489.16518 1473.51402,5489.30044 1473.51402,5489.4357 C1473.51402,5489.57097 1473.64928,5489.70623 1473.78455,5489.70623 C1473.91981,5489.70623 1474.05508,5489.70623 1474.32561,5489.57097 L1474.59613,5489.57097 C1474.46087,5489.4357 1474.46087,5489.70623 1474.32561,5489.70623 L1474.32561,5489.70623 Z" id="形状"></path>
        </g>
    </g>
</svg>