<svg width="22" height="16" viewBox="0 0 22 16" fill="none" xmlns="http://www.w3.org/2000/svg">
<path id="&#229;&#189;&#162;&#231;&#138;&#182;" d="M18.6239 1.32631C17.2217 0.712427 15.7181 0.260134 14.1459 0.00108598C14.1173 -0.00391169 14.0887 0.0085822 14.0739 0.0335712C13.8805 0.361754 13.6663 0.78989 13.5163 1.1264C11.8254 0.884847 10.143 0.884847 8.48681 1.1264C8.33678 0.782392 8.11476 0.361754 7.92055 0.0335712C7.90576 0.00941544 7.87716 -0.00307904 7.84856 0.00108598C6.27727 0.2593 4.7736 0.711593 3.37053 1.32631C3.35839 1.33131 3.34798 1.33964 3.34104 1.35047C0.488943 5.4161 -0.292371 9.3818 0.090915 13.2983C0.0926494 13.3175 0.103923 13.3358 0.119532 13.3475C2.00127 14.666 3.82405 15.4665 5.61301 15.9971C5.64163 16.0054 5.67198 15.9954 5.69019 15.9729C6.11337 15.4215 6.49055 14.8401 6.81401 14.2287C6.83308 14.1929 6.81493 14.1504 6.77588 14.1363C6.17754 13.9197 5.60781 13.6556 5.05976 13.3558C5.0164 13.3316 5.01293 13.2725 5.05282 13.2441C5.16815 13.1617 5.28349 13.0759 5.39362 12.9893C5.41356 12.9735 5.44131 12.9701 5.46473 12.9801C9.06516 14.5486 12.9631 14.5486 16.5211 12.9801C16.5445 12.9693 16.5722 12.9727 16.593 12.9885C16.7031 13.0751 16.8185 13.1617 16.9347 13.2441C16.9746 13.2725 16.972 13.3316 16.9286 13.3558C16.3806 13.6615 15.8109 13.9197 15.2117 14.1355C15.1726 14.1496 15.1553 14.1929 15.1744 14.2287C15.5047 14.8392 15.882 15.4206 16.2974 15.9721C16.3147 15.9954 16.3459 16.0054 16.3745 15.9971C18.1721 15.4665 19.9949 14.666 21.8767 13.3475C21.8931 13.3358 21.9035 13.3183 21.9053 13.2991C22.364 8.77125 21.137 4.83803 18.6525 1.3513C18.6465 1.33964 18.6361 1.33131 18.6239 1.32631ZM7.35167 10.9136C6.26774 10.9136 5.37454 9.96402 5.37454 8.79789C5.37454 7.63177 6.25038 6.68221 7.35167 6.68221C8.46163 6.68221 9.34615 7.64005 9.32879 8.79789C9.32879 9.96402 8.45295 10.9136 7.35167 10.9136ZM14.6618 10.9136C13.5779 10.9136 12.6847 9.96402 12.6847 8.79789C12.6847 7.63177 13.5606 6.68221 14.6618 6.68221C15.7718 6.68221 16.6563 7.64005 16.639 8.79789C16.639 9.96402 15.7718 10.9136 14.6618 10.9136Z" fill="black" fill-opacity="0.3"/>
</svg>
