<svg width="32" height="32" viewBox="0 0 32 32" fill="none" xmlns="http://www.w3.org/2000/svg">
<g id="SNS logo">
<rect id="Rectangle 21" width="32" height="32" rx="6" fill="#FEAA28"/>
<path id="&#229;&#189;&#162;&#231;&#138;&#182;&#231;&#187;&#147;&#229;&#144;&#136;" d="M16 6C21.5227 6 26 10.4773 26 16C26 21.5227 21.5227 26 16 26C10.4773 26 6 21.5227 6 16C6 10.4773 10.4773 6 16 6ZM16 7.81818C11.4813 7.81818 7.81818 11.4813 7.81818 16C7.81818 20.5187 11.4813 24.1818 16 24.1818C18.9231 24.1818 21.6241 22.6224 23.0857 20.0909C24.5472 17.5594 24.5472 14.4406 23.0857 11.9091C21.6241 9.37763 18.9231 7.81818 16 7.81818ZM19.6364 11.4545L17.6091 17.1418L12.3636 20.5455L14.3909 14.8582L19.6364 11.4545Z" fill="white"/>
</g>
</svg>
